<?xml version="1.0" encoding="UTF-8"?><svg xmlns="http://www.w3.org/2000/svg" xmlns:xlink="http://www.w3.org/1999/xlink" width="16" height="16"><defs><linearGradient id="c"><stop offset="0" stop-color="#8ccb81"/><stop offset="1" stop-color="#65ab55"/></linearGradient><linearGradient><stop offset="0" stop-color="#74b75b"/><stop offset="1" stop-color="#86c97a"/></linearGradient><linearGradient id="b"><stop offset="0" stop-color="#dcf1d8"/><stop offset="1" stop-color="#89be78"/></linearGradient><linearGradient id="a"><stop offset="0" stop-color="#34812c" stop-opacity=".957"/><stop offset="1" stop-color="#87b870" stop-opacity=".957"/></linearGradient><linearGradient x1="12.758" y1="13.001" x2="2.583" y2="2.521" xlink:href="#a" gradientUnits="userSpaceOnUse"/><linearGradient x1="2.583" y1="2.521" x2="12.758" y2="13.001" xlink:href="#b" gradientUnits="userSpaceOnUse"/><linearGradient x1="4.551" y1="4.433" x2="11.459" y2="11.341" xlink:href="#c" gradientUnits="userSpaceOnUse"/><linearGradient x1="4.551" y1="4.433" x2="11.459" y2="11.341" id="f" xlink:href="#c" gradientUnits="userSpaceOnUse" gradientTransform="matrix(1.002 0 0 1.002 -.038 0)"/><linearGradient x1="2.583" y1="2.521" x2="12.758" y2="13.001" id="d" xlink:href="#b" gradientUnits="userSpaceOnUse" gradientTransform="translate(.253 .127)"/><linearGradient x1="12.758" y1="13.001" x2="2.583" y2="2.521" id="e" xlink:href="#a" gradientUnits="userSpaceOnUse" gradientTransform="translate(.253 .127)"/></defs><path d="M14.9 7.95a6.85 6.85 0 1 1-13.7 0 6.85 6.85 0 1 1 13.7 0z" fill="url(#d)" fill-rule="evenodd" stroke="url(#e)"/><path d="M13 8A5 5 0 1 1 3 8a5 5 0 1 1 10 0z" fill="url(#f)"/><path d="M7.032 5v2.042H5v1.995h2.063V11h2V9.005H11V7.01H9.032V5.017z" fill="#fff" fill-opacity=".957"/></svg>
