<?xml version="1.0" encoding="UTF-8"?>
<svg xmlns="http://www.w3.org/2000/svg" width="44" height="248">
	<path fill="#eaecf0" d="M44 62H9.978l-9.8 15 9.8 15H44z" overflow="visible"/>
	<path fill="#3e3e3e" d="M34.794 64.844L24.504 82.57l-4.03-2.974-3.16 4.215 6.447 4.775 2.357 1.735 1.488-2.542 11.714-20.33-4.525-2.604z" overflow="visible"/>
	<path fill="#c8dbf3" d="M44 93H9.978l-9.8 15 9.8 15H44z" overflow="visible"/>
	<path fill="#36c" stroke="#36c" stroke-width=".75" d="M34.794 95.844l-10.29 17.727-4.03-2.973-3.16 4.215 6.447 4.774 2.357 1.735 1.488-2.54L39.32 98.45l-4.525-2.605z" overflow="visible"/>
	<path fill="#eaecf0" d="M44 0H9.978l-9.8 15 9.8 15H44z" overflow="visible"/>
	<path fill="#fff" stroke="#a2a9b1" stroke-width=".75" d="M34.794 2.844L24.504 20.57l-4.03-2.974-3.16 4.215 6.447 4.775 2.357 1.735 1.488-2.542L39.32 5.448l-4.525-2.604z" overflow="visible"/>
	<path fill="#c8dbf3" d="M44 31H9.978l-9.8 15 9.8 15H44z" overflow="visible"/>
	<path fill="#fff" stroke="#9ebfea" stroke-width=".75" d="M34.794 33.844L24.504 51.57l-4.03-2.974-3.16 4.215 6.447 4.775 2.357 1.735 1.488-2.542 11.714-20.33-4.525-2.604z" overflow="visible"/>
	<path fill="#d1d3d4" d="M37.693 128.84l-12.435 21.73-7.02-5.58 1.646-2.202 4.6 3.656 10.882-19.018"/>
	<path fill="#9dbfdf" d="M35.366 158.428l2.327 1.41-12.435 21.734-7.02-5.58 1.648-2.202 4.6 3.657M8.188 166.5v3.438H4.844v3.03h3.343v3.407h2.938v-3.406h3.344v-3.033h-3.346V166.5H8.187z"/>
	<path fill="#54595d" d="M18.237 206.99l1.647-2.2 4.6 3.656 10.882-19.018 2.327 1.41-12.435 21.734"/>
	<path fill="#9dbfdf" d="M19.884 235.79l4.6 3.656 10.882-19.018 2.327 1.41-12.435 21.734-7.02-5.58"/>
</svg>
