<?xml version="1.0" encoding="UTF-8" standalone="no"?>
<!-- Created with Inkscape (http://www.inkscape.org/) -->

<svg
   xmlns:dc="http://purl.org/dc/elements/1.1/"
   xmlns:cc="http://creativecommons.org/ns#"
   xmlns:rdf="http://www.w3.org/1999/02/22-rdf-syntax-ns#"
   xmlns:svg="http://www.w3.org/2000/svg"
   xmlns="http://www.w3.org/2000/svg"
   version="1.1"
   width="44"
   height="248"
   id="svg10555">
  <defs
     id="defs10557" />
  <metadata
     id="metadata10560">
    <rdf:RDF>
      <cc:Work
         rdf:about="">
        <dc:format>image/svg+xml</dc:format>
        <dc:type
           rdf:resource="http://purl.org/dc/dcmitype/StillImage" />
        <dc:title></dc:title>
      </cc:Work>
    </rdf:RDF>
  </metadata>
  <path
     d="M 0.1772,62 34.19936,62 44,77.00002 l -9.80064,15 -34.02216,0 z"
     id="rect12220"
     style="color:#000000;fill:#e5e5e5;fill-opacity:1;fill-rule:nonzero;stroke:none;stroke-width:1;marker:none;visibility:visible;display:inline;overflow:visible;enable-background:accumulate" />
  <path
     d="m 22.33832,64.84398 -10.28928,17.72734 -4.02912,-2.9752 -3.16104,4.2149 6.4464,4.7727 2.35524,1.7356 1.48776,-2.5413 11.71476,-20.33072 -4.52472,-2.60332 z"
     id="path12436-0-1-2-8-1-9-2-9"
     style="font-size:medium;font-style:normal;font-variant:normal;font-weight:normal;font-stretch:normal;text-indent:0;text-align:start;text-decoration:none;line-height:normal;letter-spacing:normal;word-spacing:normal;text-transform:none;direction:ltr;block-progression:tb;writing-mode:lr-tb;text-anchor:start;baseline-shift:baseline;color:#000000;fill:#3e3e3e;fill-opacity:1;stroke:none;stroke-width:2.6545198;marker:none;visibility:visible;display:inline;overflow:visible;enable-background:accumulate;font-family:Sans;-inkscape-font-specification:Sans" />
  <path
     d="m 0.1772,93.00002 34.02216,0 9.80064,15 -9.80064,15 -34.02216,0 z"
     id="rect12220-7"
     style="color:#000000;fill:#c8dbf3;fill-opacity:1;fill-rule:nonzero;stroke:none;stroke-width:1;marker:none;visibility:visible;display:inline;overflow:visible;enable-background:accumulate" />
  <path
     d="m 22.33832,95.84402 -10.28928,17.7273 -4.02912,-2.9752 -3.16104,4.2149 6.4464,4.7727 2.35524,1.7356 1.48776,-2.5413 11.71476,-20.3307 -4.52472,-2.6033 z"
     id="path12436-0-1-2-8-1-9-2-9-9"
     style="font-size:medium;font-style:normal;font-variant:normal;font-weight:normal;font-stretch:normal;text-indent:0;text-align:start;text-decoration:none;line-height:normal;letter-spacing:normal;word-spacing:normal;text-transform:none;direction:ltr;block-progression:tb;writing-mode:lr-tb;text-anchor:start;baseline-shift:baseline;color:#000000;fill:#3366bb;fill-opacity:1;stroke:#3366bb;stroke-width:0.75;stroke-opacity:1;marker:none;visibility:visible;display:inline;overflow:visible;enable-background:accumulate;font-family:Sans;-inkscape-font-specification:Sans" />
  <path
     d="M 0.1772,0 34.19936,0 44,15 34.19936,30 0.1772,30 z"
     id="rect12220-0"
     style="color:#000000;fill:#e5e5e5;fill-opacity:1;fill-rule:nonzero;stroke:none;stroke-width:1;marker:none;visibility:visible;display:inline;overflow:visible;enable-background:accumulate" />
  <path
     d="M 22.33832,2.84396 12.04904,20.57132 8.01992,17.5961 l -3.16104,4.21491 6.4464,4.77275 2.35524,1.73554 1.48776,-2.54133 L 26.86304,5.44729 22.33832,2.84396 z"
     id="path12436-0-1-2-8-1-9-2-9-2"
     style="font-size:medium;font-style:normal;font-variant:normal;font-weight:normal;font-stretch:normal;text-indent:0;text-align:start;text-decoration:none;line-height:normal;letter-spacing:normal;word-spacing:normal;text-transform:none;direction:ltr;block-progression:tb;writing-mode:lr-tb;text-anchor:start;baseline-shift:baseline;color:#000000;fill:#ffffff;fill-opacity:1;stroke:#aeaeae;stroke-width:0.75;stroke-opacity:1;marker:none;visibility:visible;display:inline;overflow:visible;enable-background:accumulate;font-family:Sans;-inkscape-font-specification:Sans" />
  <path
     d="M 0.1772,31 34.19936,31 44,46 34.19936,61 0.1772,61 z"
     id="rect12220-0-0"
     style="color:#000000;fill:#c8dbf3;fill-opacity:1;fill-rule:nonzero;stroke:none;stroke-width:1;marker:none;visibility:visible;display:inline;overflow:visible;enable-background:accumulate" />
  <path
     d="M 22.33832,33.84396 12.04904,51.57132 8.01992,48.5961 l -3.16104,4.21491 6.4464,4.77275 2.35524,1.73554 1.48776,-2.54133 11.71476,-20.33068 -4.52472,-2.60333 z"
     id="path12436-0-1-2-8-1-9-2-9-2-4"
     style="font-size:medium;font-style:normal;font-variant:normal;font-weight:normal;font-stretch:normal;text-indent:0;text-align:start;text-decoration:none;line-height:normal;letter-spacing:normal;word-spacing:normal;text-transform:none;direction:ltr;block-progression:tb;writing-mode:lr-tb;text-anchor:start;baseline-shift:baseline;color:#000000;fill:#ffffff;fill-opacity:1;stroke:#9ebfea;stroke-width:0.75;stroke-opacity:1;marker:none;visibility:visible;display:inline;overflow:visible;enable-background:accumulate;font-family:Sans;-inkscape-font-specification:Sans" />
  <polygon
     points="41.329,36.641 43.396,37.858 32.354,56.604 26.119,51.79 27.582,49.892 31.667,53.045 "
     transform="matrix(1.1261478,0,0,1.1592998,-23.63227,84.95052)"
     id="polygon3"
     style="fill:#d1d3d4" />
  <polygon
     points="31.668,92.453 41.329,76.048 43.396,77.265 32.354,96.011 26.12,91.197 27.583,89.299 "
     transform="matrix(1.1261478,0,0,1.1592998,-23.63227,70.26602)"
     id="polygon5"
     style="fill:#9dbfdf" />
  <path
     d="m 35.9897,166.5 0,3.4375 3.34375,0 0,3.03125 -3.34375,0 0,3.40625 -2.9375,0 0,-3.40625 -3.34375,0 0,-3.03125 3.34375,0 0,-3.4375 2.9375,0 z"
     id="rect9"
     style="fill:#9dbfdf" />
  <polygon
     points="32.354,56.604 26.119,51.79 27.582,49.892 31.667,53.045 41.329,36.641 43.396,37.858 "
     transform="matrix(1.1261478,0,0,1.1592998,-23.63227,146.95055)"
     id="polygon3018"
     style="fill:#5f5f5f;fill-opacity:1" />
  <polygon
     points="26.119,51.79 27.582,49.892 31.667,53.045 41.329,36.641 43.396,37.858 32.354,56.604 "
     transform="matrix(1.1261478,0,0,1.1592998,-23.63227,177.95052)"
     id="polygon3022"
     style="fill:#9dbfdf;fill-opacity:1" />
</svg>
