<?xml version="1.0" encoding="UTF-8"?>
<svg xmlns="http://www.w3.org/2000/svg" width="44" height="248">
	<path fill="#eaecf0" d="M.177 62H34.2L44 77l-9.8 15H.176z" overflow="visible"/>
	<path fill="#3e3e3e" d="M22.338 64.844L12.048 82.57 8.02 79.597 4.86 83.81l6.445 4.774 2.356 1.735 1.488-2.542 11.715-20.33-4.525-2.604z" overflow="visible"/>
	<path fill="#c8dbf3" d="M.177 93H34.2l9.8 15-9.8 15H.176z" overflow="visible"/>
	<path fill="#36c" stroke="#36c" stroke-width=".75" d="M22.338 95.844l-10.29 17.727-4.028-2.974-3.16 4.215 6.445 4.774 2.356 1.735 1.488-2.542 11.715-20.33-4.525-2.604z" overflow="visible"/>
	<path fill="#eaecf0" d="M.177 0H34.2L44 15l-9.8 15H.176z" overflow="visible"/>
	<path fill="#fff" stroke="#aeaeae" stroke-width=".75" d="M22.338 2.844L12.048 20.57 8.02 17.597 4.86 21.81l6.445 4.774 2.356 1.735 1.488-2.542 11.715-20.33-4.525-2.604z" overflow="visible"/>
	<path fill="#c8dbf3" d="M.177 31H34.2L44 46l-9.8 15H.176z" overflow="visible"/>
	<path fill="#fff" stroke="#9ebfea" stroke-width=".75" d="M22.338 33.844L12.048 51.57 8.02 48.597 4.86 52.81l6.445 4.774 2.356 1.735 1.488-2.542 11.715-20.33-4.525-2.604z" overflow="visible"/>
	<path fill="#d1d3d4" d="M22.91 127.428l2.328 1.41-12.435 21.734-7.02-5.58 1.646-2.202 4.6 3.656"/>
	<path fill="#9dbfdf" d="M12.03 177.447l10.88-19.02 2.328 1.412-12.435 21.732-7.02-5.58 1.647-2.202M35.99 166.5v3.438h3.343v3.03H35.99v3.407h-2.938v-3.406h-3.344v-3.032h3.344V166.5h2.938z"/>
	<path fill="#54595d" d="M12.803 212.572l-7.02-5.58 1.646-2.202 4.6 3.656 10.88-19.018 2.328 1.41"/>
	<path fill="#9dbfdf" d="M5.782 237.99l1.647-2.2 4.6 3.656 10.88-19.018 2.328 1.41-12.435 21.734"/>
</svg>
