<?xml version="1.0" encoding="UTF-8" standalone="no"?>
<!-- Created with Inkscape (http://www.inkscape.org/) -->

<svg
   xmlns:dc="http://purl.org/dc/elements/1.1/"
   xmlns:cc="http://creativecommons.org/ns#"
   xmlns:rdf="http://www.w3.org/1999/02/22-rdf-syntax-ns#"
   xmlns:svg="http://www.w3.org/2000/svg"
   xmlns="http://www.w3.org/2000/svg"
   version="1.1"
   width="44"
   height="248"
   id="svg10555">
  <defs
     id="defs10557" />
  <metadata
     id="metadata10560">
    <rdf:RDF>
      <cc:Work
         rdf:about="">
        <dc:format>image/svg+xml</dc:format>
        <dc:type
           rdf:resource="http://purl.org/dc/dcmitype/StillImage" />
        <dc:title></dc:title>
      </cc:Work>
    </rdf:RDF>
  </metadata>
  <g
     transform="translate(0,-804.36218)"
     id="layer1">
    <path
       d="m 44,866.36218 -34.02216,0 -9.80064,15.00002 9.80064,15 34.02216,0 z"
       id="rect12220"
       style="color:#000000;fill:#e5e5e5;fill-opacity:1;fill-rule:nonzero;stroke:none;stroke-width:1;marker:none;visibility:visible;display:inline;overflow:visible;enable-background:accumulate" />
    <path
       d="m 34.7936,869.20616 -10.28928,17.72734 -4.02912,-2.9752 -3.16104,4.2149 6.4464,4.7727 2.35524,1.7356 1.48776,-2.5413 11.71476,-20.33072 -4.52472,-2.60332 z"
       id="path12436-0-1-2-8-1-9-2-9"
       style="font-size:medium;font-style:normal;font-variant:normal;font-weight:normal;font-stretch:normal;text-indent:0;text-align:start;text-decoration:none;line-height:normal;letter-spacing:normal;word-spacing:normal;text-transform:none;direction:ltr;block-progression:tb;writing-mode:lr-tb;text-anchor:start;baseline-shift:baseline;color:#000000;fill:#3e3e3e;fill-opacity:1;stroke:none;stroke-width:2.6545198;marker:none;visibility:visible;display:inline;overflow:visible;enable-background:accumulate;font-family:Sans;-inkscape-font-specification:Sans" />
    <path
       d="m 44,897.3622 -34.02216,0 -9.80064,15 9.80064,15 34.02216,0 z"
       id="rect12220-7"
       style="color:#000000;fill:#c8dbf3;fill-opacity:1;fill-rule:nonzero;stroke:none;stroke-width:1;marker:none;visibility:visible;display:inline;overflow:visible;enable-background:accumulate" />
    <path
       d="m 34.7936,900.2062 -10.28928,17.7273 -4.02912,-2.9752 -3.16104,4.2149 6.4464,4.7727 2.35524,1.7356 1.48776,-2.5413 11.71476,-20.3307 -4.52472,-2.6033 z"
       id="path12436-0-1-2-8-1-9-2-9-9"
       style="font-size:medium;font-style:normal;font-variant:normal;font-weight:normal;font-stretch:normal;text-indent:0;text-align:start;text-decoration:none;line-height:normal;letter-spacing:normal;word-spacing:normal;text-transform:none;direction:ltr;block-progression:tb;writing-mode:lr-tb;text-anchor:start;baseline-shift:baseline;color:#000000;fill:#3366bb;fill-opacity:1;stroke:#3366bb;stroke-width:0.75;stroke-opacity:1;marker:none;visibility:visible;display:inline;overflow:visible;enable-background:accumulate;font-family:Sans;-inkscape-font-specification:Sans" />
    <path
       d="m 44,804.36218 -34.02216,0 -9.80064,15 9.80064,15 34.02216,0 z"
       id="rect12220-0"
       style="color:#000000;fill:#e5e5e5;fill-opacity:1;fill-rule:nonzero;stroke:none;stroke-width:1;marker:none;visibility:visible;display:inline;overflow:visible;enable-background:accumulate" />
    <path
       d="m 34.7936,807.20614 -10.28928,17.72736 -4.02912,-2.97522 -3.16104,4.21491 6.4464,4.77275 2.35524,1.73554 1.48776,-2.54133 11.71476,-20.33068 -4.52472,-2.60333 z"
       id="path12436-0-1-2-8-1-9-2-9-2"
       style="font-size:medium;font-style:normal;font-variant:normal;font-weight:normal;font-stretch:normal;text-indent:0;text-align:start;text-decoration:none;line-height:normal;letter-spacing:normal;word-spacing:normal;text-transform:none;direction:ltr;block-progression:tb;writing-mode:lr-tb;text-anchor:start;baseline-shift:baseline;color:#000000;fill:#ffffff;fill-opacity:1;stroke:#aeaeae;stroke-width:0.75;stroke-opacity:1;marker:none;visibility:visible;display:inline;overflow:visible;enable-background:accumulate;font-family:Sans;-inkscape-font-specification:Sans" />
    <path
       d="m 44,835.36218 -34.02216,0 -9.80064,15 9.80064,15 34.02216,0 z"
       id="rect12220-0-0"
       style="color:#000000;fill:#c8dbf3;fill-opacity:1;fill-rule:nonzero;stroke:none;stroke-width:1;marker:none;visibility:visible;display:inline;overflow:visible;enable-background:accumulate" />
    <path
       d="m 34.7936,838.20614 -10.28928,17.72736 -4.02912,-2.97522 -3.16104,4.21491 6.4464,4.77275 2.35524,1.73554 1.48776,-2.54133 11.71476,-20.33068 -4.52472,-2.60333 z"
       id="path12436-0-1-2-8-1-9-2-9-2-4"
       style="font-size:medium;font-style:normal;font-variant:normal;font-weight:normal;font-stretch:normal;text-indent:0;text-align:start;text-decoration:none;line-height:normal;letter-spacing:normal;word-spacing:normal;text-transform:none;direction:ltr;block-progression:tb;writing-mode:lr-tb;text-anchor:start;baseline-shift:baseline;color:#000000;fill:#ffffff;fill-opacity:1;stroke:#9ebfea;stroke-width:0.75;stroke-opacity:1;marker:none;visibility:visible;display:inline;overflow:visible;enable-background:accumulate;font-family:Sans;-inkscape-font-specification:Sans" />
    <polygon
       points="43.396,37.858 32.354,56.604 26.119,51.79 27.582,49.892 31.667,53.045 41.329,36.641 "
       transform="matrix(1.1261478,0,0,1.1592998,-11.17699,889.3127)"
       id="polygon3"
       style="fill:#d1d3d4" />
    <polygon
       points="41.329,76.048 43.396,77.265 32.354,96.011 26.12,91.197 27.583,89.299 31.668,92.453 "
       transform="matrix(1.1261478,0,0,1.1592998,-11.17699,874.6282)"
       id="polygon5"
       style="fill:#9dbfdf" />
    <path
       d="m 8.1875,166.5 0,3.4375 -3.34375,0 0,3.03125 3.34375,0 0,3.40625 2.9375,0 0,-3.40625 3.34375,0 0,-3.03125 -3.34375,0 0,-3.4375 -2.9375,0 z"
       transform="translate(0,804.36218)"
       id="rect9"
       style="fill:#9dbfdf" />
    <polygon
       points="26.119,51.79 27.582,49.892 31.667,53.045 41.329,36.641 43.396,37.858 32.354,56.604 "
       transform="matrix(1.1261478,0,0,1.1592998,-11.17699,951.31273)"
       id="polygon3018"
       style="fill:#5f5f5f;fill-opacity:1" />
    <polygon
       points="27.582,49.892 31.667,53.045 41.329,36.641 43.396,37.858 32.354,56.604 26.119,51.79 "
       transform="matrix(1.1261478,0,0,1.1592998,-11.17699,982.3127)"
       id="polygon3022"
       style="fill:#9dbfdf;fill-opacity:1" />
  </g>
</svg>
