<?xml version="1.0" encoding="UTF-8"?><svg xmlns="http://www.w3.org/2000/svg" xmlns:xlink="http://www.w3.org/1999/xlink" width="16" height="16"><defs><linearGradient id="a"><stop offset="0" stop-color="#6bb8e8"/><stop offset="1" stop-color="#45a5e2"/></linearGradient><linearGradient x1="2.445" y1="2.365" x2="13.632" y2="13.552" id="b" xlink:href="#a" gradientUnits="userSpaceOnUse"/></defs><g><path d="M15.982 8.01a7.946 7.946 0 1 1-15.893 0 7.946 7.946 0 1 1 15.892 0z" transform="matrix(1.007 0 0 1.007 -.089 -.063)" fill="url(#b)" fill-rule="evenodd"/><path d="M8.604 9.393H6.64v-.267c0-.297.06-.56.18-.79.12-.23.37-.525.756-.88l.348-.316c.207-.188.357-.366.45-.533.1-.167.148-.334.148-.5 0-.254-.087-.452-.26-.593-.175-.146-.418-.218-.73-.218-.294 0-.61.062-.952.185-.34.12-.696.3-1.066.54V4.31c.438-.15.84-.264 1.202-.336.363-.073.713-.11 1.05-.11.885 0 1.56.182 2.024.545.464.358.696.884.696 1.577 0 .355-.07.675-.212.957-.14.28-.382.58-.723.904l-.348.31c-.246.225-.408.406-.484.544-.076.134-.114.283-.114.446v.245m-1.964.805h1.964v1.937H6.64v-1.937" style="-inkscape-font-specification:Sans Bold" font-size="11.143" font-weight="bold" letter-spacing="0" word-spacing="0" fill="#fff" font-family="Sans"/></g></svg>
