<?xml version="1.0" encoding="UTF-8" standalone="no"?>
<!-- Created with Inkscape (http://www.inkscape.org/) -->

<svg
   xmlns:dc="http://purl.org/dc/elements/1.1/"
   xmlns:cc="http://creativecommons.org/ns#"
   xmlns:rdf="http://www.w3.org/1999/02/22-rdf-syntax-ns#"
   xmlns:svg="http://www.w3.org/2000/svg"
   xmlns="http://www.w3.org/2000/svg"
   version="1.1"
   width="15"
   height="15"
   viewBox="0 0 15 15"
   id="svg17805"
   xml:space="preserve"><metadata
   id="metadata12"><rdf:RDF><cc:Work
       rdf:about=""><dc:format>image/svg+xml</dc:format><dc:type
         rdf:resource="http://purl.org/dc/dcmitype/StillImage" /><dc:title></dc:title></cc:Work></rdf:RDF></metadata><defs
   id="defs10" />
<g
   transform="translate(-159.64355,-100.30805)"
   id="layer1">
	<g
   transform="translate(-279.58355,-315.7339)"
   id="g18113">
		<path
   d="m 440.281,419.25 v 0.562 9.656 0.532 h 0.531 9.657 0.531 v -0.531 -9.656 -0.562 h -0.531 -9.657 -0.531 z m 1.063,1.094 h 8.594 v 8.594 h -8.594 v -8.594 z"
   id="rect8974-9-6-80-1"
   style="fill:#565656" />
		<path
   d="m 447.443,421.423 -2.858,4.925 -1.12,-0.826 -0.878,1.171 1.791,1.326 0.655,0.482 0.413,-0.707 3.254,-5.648 -1.257,-0.723 z"
   id="path12436-0-1-2-8-1-9-2-0-5-7"
   style="fill:#565656" />
		<path
   d="m 442.438,417.094 v 0.531 2.156 0.531 h 0.562 6.938 v 6.969 0.531 h 0.562 2.156 0.531 v -0.531 -9.656 -0.531 H 452.656 443 442.438 z m 1.093,1.062 h 8.563 v 8.594 h -1.062 v -6.969 -0.531 h -0.531 -6.969 v -1.094 z"
   id="rect8974-5-0-4-9"
   style="fill:#565656" />
	</g>
</g>
</svg>