<?xml version="1.0" encoding="utf-8"?>
<!-- Generator: Adobe Illustrator 17.1.0, SVG Export Plug-In . SVG Version: 6.00 Build 0)  -->
<!DOCTYPE svg PUBLIC "-//W3C//DTD SVG 1.1//EN" "http://www.w3.org/Graphics/SVG/1.1/DTD/svg11.dtd">
<svg version="1.1" id="Layer_1" xmlns="http://www.w3.org/2000/svg" xmlns:xlink="http://www.w3.org/1999/xlink" x="0px" y="0px"
	 viewBox="0 0 612 792" enable-background="new 0 0 612 792" xml:space="preserve">
<g>
	<path fill="#999999" d="M291.3,439.4c-39.5-38.9-73.9-72.7-93.7-150.5H336v-58.6H197.6v-77.1h-59.3V231H0v58.7h138.3
		c0,19.8,1.9,11.5,0,19.8C118.6,386.4,95,435.5,0,483.3L19.8,542c89.9-48.4,137.1-107.7,158.1-175.3c19.8,51,53.5,91.8,91.8,130
		L291.3,439.4z"/>
	<path fill="#999999" d="M473.7,250h-79L256.3,638.9h59.3l39.5-116.7h158.1l39.5,116.7H612L473.7,250z M374.9,464.2l59.3-155.5
		l59.3,155.6L374.9,464.2L374.9,464.2z"/>
</g>
</svg>
