<?xml version="1.0" encoding="UTF-8" standalone="no"?>
<!-- Created with Inkscape (http://www.inkscape.org/) -->

<svg
   xmlns:dc="http://purl.org/dc/elements/1.1/"
   xmlns:cc="http://creativecommons.org/ns#"
   xmlns:rdf="http://www.w3.org/1999/02/22-rdf-syntax-ns#"
   xmlns:svg="http://www.w3.org/2000/svg"
   xmlns="http://www.w3.org/2000/svg"
   version="1.1"
   width="34"
   height="34.03125"
   id="svg9613">
  <defs
     id="defs9615" />
  <metadata
     id="metadata9618">
    <rdf:RDF>
      <cc:Work
         rdf:about="">
        <dc:format>image/svg+xml</dc:format>
        <dc:type
           rdf:resource="http://purl.org/dc/dcmitype/StillImage" />
        <dc:title></dc:title>
      </cc:Work>
    </rdf:RDF>
  </metadata>
  <g
     id="g2987">
    <path
       d="m 16.977523,0.24095147 c -9.2629169,0 -16.73280045,7.51449143 -16.73280045,16.77740253 0,9.262912 7.46988355,16.777403 16.73280045,16.777403 9.262917,0 16.777413,-7.514491 16.777413,-16.777403 0,-9.2629111 -7.514496,-16.77740253 -16.777413,-16.77740253 z m 0,4.14972823 c 6.966927,0 12.627682,5.6607523 12.627682,12.6276743 0,6.966923 -5.660755,12.583053 -12.627682,12.583053 -6.966937,0 -12.5830596,-5.61613 -12.5830596,-12.583053 0,-6.966922 5.6161226,-12.6276743 12.5830596,-12.6276743 z"
       id="path15290-7-0-9-5-1-59-0-3-2"
       style="color:#000000;fill:#000000;fill-opacity:0.08333333;fill-rule:nonzero;stroke:#565656;stroke-width:0.5;stroke-linecap:butt;stroke-linejoin:miter;stroke-miterlimit:4;stroke-opacity:0.19607843;stroke-dasharray:none;stroke-dashoffset:0;marker:none;visibility:visible;display:inline;overflow:visible;enable-background:accumulate" />
    <path
       d="M 31.677259,17.003529 A 14.680208,14.680199 0 0 1 20.796571,31.183505"
       id="path15290-6-0-6-1-0-0-16-1-0-06"
       style="color:#000000;fill:none;stroke:#3366bb;stroke-width:2.2583456;stroke-linecap:round;stroke-linejoin:miter;stroke-miterlimit:4;stroke-opacity:1;stroke-dasharray:none;stroke-dashoffset:0;marker:none;visibility:visible;display:inline;overflow:visible;enable-background:accumulate" />
  </g>
</svg>
