<?xml version="1.0" encoding="UTF-8"?>
<svg xmlns="http://www.w3.org/2000/svg" width="33.389" height="22.857" viewBox="0 0 33.389 22.857">
	<path fill="#fef4ba" d="M0 0h25.922l7.467 11.43-7.468 11.428H0V0z"/>
	<path fill="#54595d" d="M17.98 4.357c-4.06 0-7.374 3.316-7.374 7.375 0 4.06 3.315 7.375 7.375 7.375 4.06 0 7.376-3.316 7.376-7.375 0-4.06-3.316-7.375-7.375-7.375zm0 1.768c3.105 0 5.608 2.504 5.608 5.607s-2.504 5.607-5.607 5.607c-3.102 0-5.606-2.505-5.606-5.608 0-3.103 2.504-5.607 5.607-5.607z"/>
	<path fill="#54595d" d="M17.19 7.223v5.761h3.427v-1.21H18.4V7.223h-1.21z"/>
</svg>
