<?xml version="1.0" encoding="UTF-8" standalone="no"?>
<!-- Created with Inkscape (http://www.inkscape.org/) -->

<svg
   xmlns:dc="http://purl.org/dc/elements/1.1/"
   xmlns:cc="http://creativecommons.org/ns#"
   xmlns:rdf="http://www.w3.org/1999/02/22-rdf-syntax-ns#"
   xmlns:svg="http://www.w3.org/2000/svg"
   xmlns="http://www.w3.org/2000/svg"
   version="1.1"
   width="33.389"
   height="22.857"
   viewBox="0 0 33.389 22.857"
   id="svg2"
   xml:space="preserve"><metadata
   id="metadata10"><rdf:RDF><cc:Work
       rdf:about=""><dc:format>image/svg+xml</dc:format><dc:type
         rdf:resource="http://purl.org/dc/dcmitype/StillImage" /><dc:title></dc:title></cc:Work></rdf:RDF></metadata><defs
   id="defs8" />
<path
   d="m 0,0 h 25.922 l 7.467,11.429 -7.467,11.429 H 0 V 0 z"
   id="rect12220-2"
   style="fill:#fef4ba" />
<path
   d="m 17.981,4.357 c -4.06,0 -7.375,3.316 -7.375,7.375 0,4.059 3.315,7.375 7.375,7.375 4.059,0 7.375,-3.316 7.375,-7.375 0,-4.059 -3.316,-7.375 -7.375,-7.375 z m 0,1.768 c 3.104,0 5.607,2.504 5.607,5.607 0,3.103 -2.504,5.607 -5.607,5.607 -3.103,0 -5.607,-2.504 -5.607,-5.607 0,-3.103 2.504,-5.607 5.607,-5.607 z"
   id="path4660-7-2-3-7-0-0"
   style="fill:#565656" />
<path
   d="m 17.189,7.223 v 4.552 0.764 0.446 h 3.428 v -1.21 H 18.399 V 7.223 h -1.21 z"
   id="rect4662-1-2-3-7-4-3"
   style="fill:#565656" />
</svg>