<?xml version="1.0" encoding="UTF-8"?>
<svg xmlns="http://www.w3.org/2000/svg" width="33.389" height="22.857" viewBox="0 0 33.389 22.857">
	<path fill="#fef4ba" d="M33.39 0H7.466L0 11.43l7.467 11.428H33.39V0z"/>
	<path fill="#54595d" d="M15.408 4.357c-4.06 0-7.375 3.316-7.375 7.375 0 4.06 3.315 7.375 7.375 7.375 4.06 0 7.375-3.316 7.375-7.375 0-4.06-3.316-7.375-7.375-7.375zm0 1.768c3.104 0 5.607 2.504 5.607 5.607s-2.504 5.607-5.607 5.607S9.8 14.834 9.8 11.73c0-3.103 2.505-5.607 5.608-5.607z"/>
	<path fill="#54595d" d="M14.616 7.223v5.761h3.428v-1.21h-2.218V7.223h-1.21z"/>
</svg>
