<?xml version="1.0" encoding="utf-8"?>
<!-- Generator: Adobe Illustrator 15.1.0, SVG Export Plug-In . SVG Version: 6.00 Build 0)  -->
<!DOCTYPE svg PUBLIC "-//W3C//DTD SVG 1.1//EN" "http://www.w3.org/Graphics/SVG/1.1/DTD/svg11.dtd">
<svg version="1.1" id="Layer_1" xmlns="http://www.w3.org/2000/svg" xmlns:xlink="http://www.w3.org/1999/xlink" x="0px" y="0px"
	 width="32px" height="32px" viewBox="0 0 32 32" enable-background="new 0 0 32 32" xml:space="preserve">
<g>
	<path fill="#6D6E71" d="M29.077,29.012c0,1.061-0.859,1.92-1.92,1.92H4.844c-1.061,0-1.921-0.859-1.921-1.92V4.043
		c0-1.061,0.86-1.92,1.921-1.92h22.313c1.061,0,1.92,0.859,1.92,1.92V29.012z"/>
	
		<rect x="5.368" y="4.054" fill="#F1F2F2" stroke="#58595B" stroke-width="0.5" stroke-miterlimit="10" width="21" height="24.349"/>
	<rect x="7.743" y="8.896" fill="#A7A9AC" width="15.625" height="2.872"/>
	<rect x="7.743" y="15.09" fill="#A7A9AC" width="15.625" height="2.875"/>
	<rect x="7.743" y="21.287" fill="#A7A9AC" width="6.125" height="2.873"/>
	<polygon fill="#414042" points="18.646,2.814 18.646,1.068 13.354,1.068 13.354,2.814 10.459,2.814 10.459,5.152 21.542,5.152 
		21.542,2.814 	"/>
</g>
</svg>
