<?xml version="1.0" encoding="utf-8"?>
<svg xmlns="http://www.w3.org/2000/svg" width="32" height="32" viewBox="0 0 32 32">
	<path fill="#54595d" d="M29.077 29.012c0 1.06-.86 1.92-1.92 1.92H4.844c-1.06 0-1.92-.86-1.92-1.92V4.042c0-1.06.86-1.92 1.92-1.92h22.313c1.06 0 1.92.86 1.92 1.92v24.97z"/>
	<path fill="#f8f9fa" stroke="#54595d" stroke-width=".5" stroke-miterlimit="10" d="M5.368 4.054h21v24.35h-21z"/>
	<path fill="#a2a9b1" d="M7.743 8.896h15.625v2.872H7.743zM7.743 15.09h15.625v2.875H7.743zM7.743 21.287h6.125v2.873H7.743z"/>
	<path fill="#414042" d="M18.646 2.814V1.068h-5.292v1.746H10.46v2.338H21.54V2.814"/>
</svg>
