<?xml version="1.0" encoding="UTF-8"?>
<svg xmlns="http://www.w3.org/2000/svg" width="32" height="32" viewBox="0 0 32 32">
	<g transform="translate(-355.875 -530.2)">
		<path fill="#fff" fill-opacity=".675" stroke="#c9c9c9" stroke-width=".257" d="M373.173 532.792h13.336v6.495h-13.337z" stroke-linecap="round"/>
		<linearGradient id="a" x1="716.994" x2="716.994" y1="-394.297" y2="-422.532" gradientUnits="userSpaceOnUse" gradientTransform="matrix(1.0287 0 0 -1.0287 -365.7 126.767)">
		<stop offset="0" stop-color="#f4f4f4"/>
		<stop offset="1" stop-color="#ddd"/>
		</linearGradient>
		<path fill="url(#a)" stroke="#9d9d9d" stroke-width=".771" d="M356.26 530.587h16.296l6.267 6.267h8.667v24.962h-31.23v-31.23z" stroke-linecap="square"/>
		<path fill="#f0f0f0" stroke="#6d6d6d" stroke-width=".844" d="M381.718 548.95c.006 5.438-4.396 9.85-9.832 9.855-5.436.006-9.847-4.396-9.854-9.83v-.023c-.006-5.436 4.396-9.847 9.832-9.854 5.436-.006 9.847 4.396 9.854 9.832v.02z" stroke-linecap="round"/>
		<path fill="#6d6d6d" d="M372.03 541.108c-.824.023-2.343.22-2.343.22s.25.476.25.687c0 .21-.062.778-.062 1.03 0 .254.925.054 1.094-.03.168-.084 1.28-1.062 1.28-1.062s.408-.612.28-.78c-.03-.045-.224-.073-.5-.065zm-4.468.718c.06.656.844 1.094.844 1.094l.125-.438s-.67-.656-.968-.656zm-.78.438s-.407.347-1.063.406c-.248.022-.746-.072-1.282-.156-1.188 1.37-1.995 3.062-2.28 4.938l.218-.312s.77 1.38 1.188 1.5c.418.12.892.543 1.25.78.358.24.59 1.473.53 2.19-.06.715.484.803.782 1.28.298.477.95 3.326 1.188 3.625.24.3.475-1.253.594-1.97.12-.715 1.688-2.033 1.688-2.75 0-.715-1.798-1.735-2.156-2.093-.358-.358-1.477-.53-2.312-.53-.835 0-.847-1.13-1.562-1.19-.715-.06.125-1 .125-1s1.96-.31 2.376-.31c.417 0 .54-1.183.72-1.72.178-.537 1.505-.486 1.624-.844.12-.358-.542-.72-.78-.72-.24 0-1.26.365-1.44.126-.178-.24 1.032-.97 1.032-.97l-.44-.28zm9.062 0c-.197.016-.374.052-.438.094-.127.084-.467.216-.594.406-.127.19-.272.624-.125.75.147.126.26.157.344.094.085-.063.73-.616.813-.53.083.084.283.593.156.593-.128 0-1.032.282-1.032.282s-.003-.17-.062-.156c-.06.015-.003.235-.062.25-.06.015-.844.375-.844.375s-.1.09-.22.19l-.25.25c-.005.006-.026.024-.03.03-.06.104-.39.6-.375.72.016.118-.07.374.094.374.163 0 1.27-.682 1.343-.562.074.12.188.125.188.125s-.073-.156 0-.156c.075 0 .563.19.563.19s-.073-.313.03-.282c.105.03.584.594.69.594.104 0 .357-.007.343-.156-.015-.15-.068-.335.125-.47.194-.133.788-.23.907-.155.12.075.304.16.125.25-.18.09-.396-.013-.5.032-.104.044-.392.333-.406.438-.015.104.56.565.53.625-.028.06-.325.344-.624.344-.3 0-2.484-.547-2.812-.532-.328.015-.615.1-.75.22-.135.118-.707.647-.78.81-.075.165-.4.958-.22 1.376.18.418.584 1.176 1.03 1.25.448.074.99.107 1.126.062.135-.045.86.76.875 1.312.016.552-.038 1.938.126 2.28.164.344.29.983.812.94.52-.045.945-.17 1.125-.407.18-.237.678-1.454.812-2.155.134-.7.754-1.754.844-2.156.09-.403.1-.632-.063-.75-.164-.12-.485-.117-.5-.25-.016-.136.21-.017.344 0 .136.014.632-.023.75-.157.12-.135.325-.57.25-.75-.073-.18-.405-.562-.405-.562s1.338.162 1.875.595c.312.25.564.577.75.844-.047-2.463-.994-4.706-2.53-6.407-.015.002-.055.03-.063.03-.232 0-2.03.345-2.03.345s-.394-.447-.69-.47c-.148-.015-.366-.02-.563-.004zm-2.282 1.312s-.212.865.094.844c.306-.02-.094-.844-.094-.844zm-.406.375s-.365.188-.28.282c.083.094.26.147.31.062.053-.085-.03-.343-.03-.343zm5.72 8.095c-.122.026-.266.124-.345.22-.078.094-.197.43-.155.624.042.194.218.458.28.437.064-.02.23-.084.25-.438.022-.355.08-.672.032-.75-.047-.08-.062-.095-.062-.095z"/>
	</g>
</svg>
