<?xml version="1.0" encoding="UTF-8"?>
<svg xmlns="http://www.w3.org/2000/svg" xml:space="preserve" width="32" height="32" viewBox="0 0 32 32">
	<g transform="translate(-355.875 -530.201)">
		<path d="M373.173 532.792h13.336v6.495h-13.336z" style="fill:#fff;fill-opacity:.675;stroke:#c9c9c9;stroke-width:.2572;stroke-linecap:round"/>
		<linearGradient id="a" x1="716.994" x2="716.994" y1="-394.297" y2="-422.532" gradientTransform="matrix(1.0287 0 0 -1.0287 -365.699 126.767)" gradientUnits="userSpaceOnUse">
			<stop offset="0" style="stop-color:#f4f4f4;stop-opacity:1"/>
			<stop offset="1" style="stop-color:#ddd;stop-opacity:1"/>
		</linearGradient>
		<path d="M356.261 530.587h16.295l6.267 6.267h8.667v24.962h-31.229z" style="fill:url(#a);stroke:#9d9d9d;stroke-width:.77149999;stroke-linecap:square"/>
		<path d="M381.718 548.951c.006 5.437-4.396 9.848-9.832 9.854s-9.847-4.396-9.854-9.831v-.022c-.006-5.436 4.396-9.847 9.832-9.854s9.847 4.396 9.854 9.832z" style="fill:#f0f0f0;stroke:#6d6d6d;stroke-width:.84439999;stroke-linecap:round"/>
		<path d="M372.031 541.108c-.825.023-2.344.219-2.344.219s.25.477.25.688-.062.778-.062 1.031.925.053 1.094-.031 1.281-1.062 1.281-1.062.408-.612.281-.781c-.031-.044-.225-.072-.5-.064m-4.469.718c.06.656.844 1.094.844 1.094l.125-.438c0 .001-.67-.656-.969-.656m-.781.438s-.406.347-1.062.406c-.247.022-.745-.072-1.281-.156a9.76 9.76 0 0 0-2.281 4.938l.219-.312s.77 1.381 1.188 1.5.892.543 1.25.781.591 1.472.531 2.188.483.804.781 1.281.949 3.326 1.188 3.625.475-1.253.594-1.969 1.688-2.034 1.688-2.75-1.798-1.736-2.156-2.094-1.477-.531-2.312-.531-.847-1.128-1.562-1.188.125-1 .125-1 1.958-.312 2.375-.312.54-1.182.719-1.719 1.506-.486 1.625-.844-.542-.719-.781-.719-1.259.364-1.438.125 1.031-.969 1.031-.969zm9.063 0c-.197.016-.374.052-.438.094-.127.084-.467.216-.594.406s-.272.624-.125.75q.22.189.344.094c.084-.063.729-.616.812-.531s.283.594.156.594-1.031.281-1.031.281-.003-.171-.062-.156c-.06.015-.003.235-.062.25-.06.015-.844.375-.844.375s-.1.088-.219.188l-.25.25c-.006.007-.027.025-.031.031-.06.104-.39.599-.375.719.016.119-.07.375.094.375s1.27-.682 1.344-.562a.26.26 0 0 0 .188.125s-.074-.156 0-.156.562.188.562.188-.073-.312.031-.281.583.594.688.594.358-.007.344-.156-.068-.335.125-.469.787-.231.906-.156c.119.074.304.16.125.25-.18.089-.396-.014-.5.031-.104.044-.392.333-.406.438s.561.565.531.625c-.029.06-.326.344-.625.344s-2.484-.546-2.812-.531-.615.099-.75.219c-.135.119-.707.648-.781.812s-.398.957-.219 1.375.584 1.176 1.031 1.25.99.107 1.125.062.859.76.875 1.312c.015.552-.039 1.938.125 2.281s.291.982.812.938.945-.168 1.125-.406c.179-.238.678-1.455.812-2.156s.754-1.754.844-2.156.102-.631-.062-.75-.485-.116-.5-.25c-.016-.135.209-.016.344 0 .135.015.631-.022.75-.156.119-.135.324-.571.25-.75s-.406-.562-.406-.562 1.338.161 1.875.594c.312.251.564.577.75.844a9.8 9.8 0 0 0-2.531-6.406c-.014.002-.054.031-.062.031-.232 0-2.031.344-2.031.344s-.393-.447-.688-.469a3.3 3.3 0 0 0-.564-.005m-2.282 1.312s-.212.865.094.844-.094-.844-.094-.844m-.406.375s-.365.187-.281.281.26.147.312.062-.031-.343-.031-.343m5.719 8.094a.7.7 0 0 0-.344.219c-.079.095-.198.43-.156.625s.218.459.281.438.229-.084.25-.438.078-.671.031-.75-.062-.094-.062-.094" style="fill:#6d6d6d"/>
	</g>
</svg>
