<?xml version="1.0" encoding="UTF-8" standalone="no"?>
<!-- Created with Inkscape (http://www.inkscape.org/) -->
<svg xmlns:dc="http://purl.org/dc/elements/1.1/" xmlns:cc="http://creativecommons.org/ns#" xmlns:rdf="http://www.w3.org/1999/02/22-rdf-syntax-ns#" xmlns:svg="http://www.w3.org/2000/svg" xmlns="http://www.w3.org/2000/svg" xmlns:xlink="http://www.w3.org/1999/xlink" xmlns:sodipodi="http://sodipodi.sourceforge.net/DTD/sodipodi-0.dtd" xmlns:inkscape="http://www.inkscape.org/namespaces/inkscape" width="31.999998" height="31.999985" id="svg3945" version="1.1" inkscape:version="0.48.3.1 r9886" sodipodi:docname="Nuevo documento 2">
  <defs id="defs3947">
    <linearGradient inkscape:collect="always" xlink:href="#linearGradient6582-5-20-76" id="linearGradient6791-8-0" gradientUnits="userSpaceOnUse" gradientTransform="translate(18.031223,-66.46804)" x1="69.296463" y1="578.60065" x2="69.296463" y2="606.83655"/>
    <linearGradient inkscape:collect="always" id="linearGradient6582-5-20-76">
      <stop style="stop-color:#f4f4f4;stop-opacity:1" offset="0" id="stop6584-0-8-1"/>
      <stop style="stop-color:#dddddd;stop-opacity:1" offset="1" id="stop6586-2-7-5"/>
    </linearGradient>
    <clipPath clipPathUnits="userSpaceOnUse" id="clipPath6503-2-8-7-45">
      <path style="color:#000000;fill:#f0f0f0;fill-opacity:0.75416667;stroke:#c9c9c9;stroke-width:0.75000006;stroke-linecap:round;stroke-linejoin:miter;stroke-miterlimit:4;stroke-opacity:1;stroke-dashoffset:0;marker:none;visibility:visible;display:inline;overflow:visible;enable-background:accumulate" d="m 213.51415,632.57117 c 0,4.02671 -3.2643,7.29101 -7.29102,7.29101 -4.02671,0 -7.29101,-3.2643 -7.29101,-7.29101 0,-4.02672 3.2643,-7.29102 7.29101,-7.29102 4.02672,0 7.29102,3.2643 7.29102,7.29102 z" id="path6505-6-7-2-4" inkscape:connector-curvature="0"/>
    </clipPath>
  </defs>
  <sodipodi:namedview id="base" pagecolor="#ffffff" bordercolor="#666666" borderopacity="1.0" inkscape:pageopacity="0.0" inkscape:pageshadow="2" inkscape:zoom="1.979899" inkscape:cx="-11.708931" inkscape:cy="11.966433" inkscape:document-units="px" inkscape:current-layer="layer1" showgrid="false" fit-margin-top="0" fit-margin-left="0" fit-margin-right="0" fit-margin-bottom="0" inkscape:window-width="1920" inkscape:window-height="1024" inkscape:window-x="0" inkscape:window-y="27" inkscape:window-maximized="1"/>
  <metadata id="metadata3950">
    <rdf:RDF>
      <cc:Work rdf:about="">
        <dc:format>image/svg+xml</dc:format>
        <dc:type rdf:resource="http://purl.org/dc/dcmitype/StillImage"/>
        <dc:title/>
      </cc:Work>
    </rdf:RDF>
  </metadata>
  <g inkscape:label="Capa 1" inkscape:groupmode="layer" id="layer1" transform="translate(-355.875,-530.20145)">
    <g id="g6681-0-8" transform="matrix(1.0287029,0,0,1.0287029,280.58595,5.5485014)">
      <rect y="512.53223" x="90.003639" height="6.3134284" width="12.963635" id="rect4026-0-8-9-6-6-2-1-4-7-7-2-4-7-6" style="color:#000000;fill:none;stroke:#c9c9c9;stroke-width:0.24999999;stroke-linecap:round;stroke-linejoin:miter;stroke-miterlimit:4;stroke-opacity:1;stroke-dasharray:none;stroke-dashoffset:0;marker:none;visibility:visible;display:inline;overflow:visible;enable-background:accumulate"/>
      <path sodipodi:nodetypes="ccccccc" inkscape:connector-curvature="0" id="rect3213-2-4-3-9-5-6-8-3-5-6" d="m 73.563336,510.38907 15.84009,0 6.09176,6.09176 8.425284,0 0,24.26536 -30.357134,0 z" style="color:#000000;fill:url(#linearGradient6791-8-0);fill-opacity:1;fill-rule:nonzero;stroke:#9d9d9d;stroke-width:0.75;stroke-linecap:square;stroke-linejoin:miter;stroke-miterlimit:4;stroke-opacity:1;stroke-dashoffset:0;marker:none;visibility:visible;display:inline;overflow:visible;enable-background:accumulate"/>
      <path transform="matrix(0.8881958,0,0,0.8881958,-165.17647,-291.64834)" d="m 296.6534,923.09424 c 0,5.94939 -4.82293,10.77233 -10.77233,10.77233 -5.94939,0 -10.77233,-4.82294 -10.77233,-10.77233 0,-5.9494 4.82294,-10.77233 10.77233,-10.77233 5.9494,0 10.77233,4.82293 10.77233,10.77233 z" sodipodi:ry="10.77233" sodipodi:rx="10.77233" sodipodi:cy="923.09424" sodipodi:cx="285.88107" id="path5753-1-5-3-9-8-2-7-5-8" style="color:#000000;fill:#f0f0f0;fill-opacity:1;stroke:#6d6d6d;stroke-width:0.84440845;stroke-linecap:round;stroke-linejoin:miter;stroke-miterlimit:4;stroke-opacity:1;stroke-dasharray:none;stroke-dashoffset:0;marker:none;visibility:visible;display:inline;overflow:visible;enable-background:accumulate" sodipodi:type="arc"/>
      <g clip-path="url(#clipPath6503-2-8-7-45)" style="fill:#6d6d6d;fill-opacity:1" transform="matrix(1.3122914,0,0,1.3122914,-181.88295,-301.87763)" id="g6392-99-3-1-3">
        <path style="fill:#6d6d6d;fill-opacity:1;stroke:none" d="m 197.41537,628.49586 c 0,0 1.45841,-0.92808 1.72358,-0.92808 0.26516,0 2.03293,0.39775 2.51907,0.35356 0.48613,-0.0442 0.79549,-0.30936 0.79549,-0.30936 l 0.30936,0.22097 c 0,0 -0.88388,0.53033 -0.7513,0.7071 0.13258,0.17678 0.88388,-0.0884 1.06066,-0.0884 0.17678,0 0.66291,0.26516 0.57452,0.53033 -0.0884,0.26516 -1.06066,0.22097 -1.19324,0.61871 -0.13258,0.39775 -0.22097,1.28164 -0.53033,1.28164 -0.30936,0 -1.76777,0.22097 -1.76777,0.22097 0,0 -0.61871,0.7071 -0.0884,0.7513 0.53033,0.0442 0.53033,0.88388 1.14904,0.88388 0.61872,0 1.45841,0.13258 1.72358,0.39775 0.26516,0.26516 1.59099,1.01646 1.59099,1.54679 0,0.53033 -1.14905,1.50261 -1.23744,2.03294 -0.0884,0.53033 -0.26516,1.67938 -0.44194,1.4584 -0.17678,-0.22097 -0.66291,-2.34229 -0.88389,-2.69584 -0.22097,-0.35355 -0.61871,-0.39775 -0.57452,-0.92808 0.0442,-0.53033 -0.13258,-1.45841 -0.39775,-1.63518 -0.26516,-0.17678 -0.61872,-0.48614 -0.92807,-0.57453 -0.30936,-0.0884 -0.88389,-1.10485 -0.88389,-1.10485 l -0.22097,0.30936 c 0,0 -0.44194,-0.22097 -0.39775,-0.66291 0.0442,-0.44195 0.53033,-1.63519 0.44195,-1.94455 -0.0884,-0.30936 -0.17678,-0.57452 -0.57453,-0.53033 -0.39775,0.0442 -1.01647,0.0884 -1.01647,0.0884 z" id="path6360-91-0-9-0" inkscape:connector-curvature="0"/>
        <path style="fill:#6d6d6d;fill-opacity:1;stroke:none" d="m 203.02804,627.30262 c 0.22097,0 0.7071,0.48613 0.7071,0.48613 l -0.0884,0.30936 c 0,0 -0.57452,-0.30936 -0.61871,-0.79549 z" id="path6362-3-6-30-7" inkscape:connector-curvature="0"/>
        <path style="fill:#6d6d6d;fill-opacity:1;stroke:none" d="m 204.59375,626.92468 c 0,0 2.03125,-0.25 2.125,-0.125 0.0937,0.125 -0.21875,0.59375 -0.21875,0.59375 0,0 -0.8125,0.71875 -0.9375,0.78125 -0.125,0.0625 -0.8125,0.21875 -0.8125,0.0312 0,-0.1875 0.0312,-0.625 0.0312,-0.78125 0,-0.15625 -0.1875,-0.5 -0.1875,-0.5 z" id="path6364-5-8-88-9" inkscape:connector-curvature="0"/>
        <path style="fill:#6d6d6d;fill-opacity:1;stroke:none" d="m 218.6875,627.86218 c 0,0 -3.34375,-0.3125 -4.09375,-0.4375 -0.75,-0.125 -1.4375,-0.34375 -1.4375,-0.34375 0,0 -1.39062,0.625 -1.5625,0.625 -0.17187,0 -1.5,0.25 -1.5,0.25 0,0 -0.29687,-0.32812 -0.51562,-0.34375 -0.21875,-0.0156 -0.64063,0.0156 -0.73438,0.0781 -0.0937,0.0625 -0.34375,0.15625 -0.4375,0.29687 -0.0937,0.14063 -0.20312,0.45313 -0.0937,0.54688 0.10938,0.0937 0.1875,0.125 0.25,0.0781 0.0625,-0.0469 0.53125,-0.45312 0.59375,-0.39062 0.0625,0.0625 0.21875,0.4375 0.125,0.4375 -0.0937,0 -0.76209,0.21245 -0.76209,0.21245 0,0 0,-0.13258 -0.0442,-0.12153 -0.0442,0.011 -0.0111,0.16572 -0.0553,0.17677 -0.0442,0.0111 -0.61871,0.29831 -0.61871,0.29831 l -0.35355,0.30941 0.35355,-0.30941 c 0,0 -0.33145,0.25417 -0.37564,0.33151 -0.0442,0.0773 -0.29832,0.44194 -0.28727,0.53033 0.011,0.0884 -0.0331,0.28726 0.0884,0.28726 0.12154,0 0.93913,-0.50823 0.99437,-0.41984 0.0552,0.0884 0.13258,0.0884 0.13258,0.0884 0,0 -0.0552,-0.0994 0,-0.0994 0.0553,0 0.41985,0.13258 0.41985,0.13258 0,0 -0.0663,-0.24307 0.0111,-0.22097 0.0773,0.0221 0.44194,0.45299 0.51928,0.45299 0.0773,0 0.26516,-0.011 0.25411,-0.12153 -0.011,-0.11049 -0.0442,-0.25412 0.0994,-0.35356 0.14363,-0.0994 0.57453,-0.15468 0.66291,-0.0994 0.0884,0.0552 0.23202,0.12153 0.0994,0.18782 -0.13258,0.0663 -0.30936,-0.011 -0.3867,0.0221 -0.0773,0.0331 -0.28726,0.24307 -0.29831,0.32041 -0.011,0.0773 0.43089,0.41984 0.4088,0.46404 -0.0221,0.0442 -0.24307,0.24306 -0.46404,0.24306 -0.22097,0 -1.84511,-0.39774 -2.08818,-0.3867 -0.24306,0.0111 -0.46404,0.0663 -0.56347,0.15468 -0.0994,0.0884 -0.50824,0.48614 -0.56348,0.60767 -0.0552,0.12154 -0.30936,0.71816 -0.17677,1.02752 0.13258,0.30936 0.43089,0.85074 0.76235,0.90598 0.33145,0.0552 0.7513,0.0994 0.85073,0.0663 0.0994,-0.0331 0.61872,0.54138 0.62977,0.95018 0.011,0.40879 -0.0221,1.4584 0.0994,1.71252 0.12153,0.25412 0.20992,0.70711 0.59662,0.67396 0.3867,-0.0331 0.69606,-0.12153 0.82864,-0.29831 0.13258,-0.17678 0.50823,-1.08276 0.60767,-1.60204 0.0994,-0.51928 0.57452,-1.28163 0.64081,-1.57994 0.0663,-0.29831 0.0663,-0.46404 -0.0552,-0.55243 -0.12153,-0.0884 -0.35355,-0.0884 -0.3646,-0.18782 -0.0111,-0.0994 0.14363,-0.0111 0.24307,0 0.0994,0.011 0.47508,-0.0332 0.56347,-0.13259 0.0884,-0.0994 0.24307,-0.41984 0.18783,-0.55242 -0.0552,-0.13259 -0.30936,-0.4088 -0.30936,-0.4088 0,0 0.99437,0.11049 1.39212,0.43089 0.39774,0.32041 0.74025,0.91703 0.74025,0.91703 0,0 0.3646,-0.71815 0.7734,-0.7513 0.40879,-0.0331 0.62976,0.26517 0.65186,0.3646 0.0221,0.0994 0.26517,0.80655 0.35355,0.87284 0.0884,0.0663 -0.0442,-0.34251 0.0332,-0.4088 0.0773,-0.0663 0.58557,0.0773 0.58557,0.0221 0,-0.0552 -0.15468,-0.26516 -0.14363,-0.48614 0.0111,-0.22097 0.87284,-1.02751 0.86179,-1.33687 -0.0111,-0.30936 -0.28726,-0.65186 -0.28726,-0.65186 0,0 0.3425,0.25411 0.50823,0 0.16573,-0.25412 0.3867,-0.55243 0.19887,-0.97228 -0.18782,-0.41984 -0.3646,-0.57452 -0.3646,-0.57452 0,0 0.27621,-0.53033 0.44194,-0.45299 0.16573,0.0773 0.82864,0.46404 0.82864,0.43089 0,-0.0331 0.58558,-0.67396 0.58558,-0.7292 0,-0.0552 -0.0405,-0.18069 -0.0405,-0.18069 z" id="path6368-5-4-4-9" inkscape:connector-curvature="0"/>
        <path style="fill:#6d6d6d;fill-opacity:1;stroke:none" d="m 207.46875,628.58093 c 0,0 -0.16406,0.64063 0.0625,0.625 0.22656,-0.0156 -0.0625,-0.625 -0.0625,-0.625 z" id="path6370-8-9-02-8" inkscape:connector-curvature="0"/>
        <path style="fill:#6d6d6d;fill-opacity:1;stroke:none" d="m 207.17969,628.87781 c 0,0 -0.28125,0.125 -0.21875,0.19531 0.0625,0.0703 0.20312,0.10937 0.24219,0.0469 0.0391,-0.0625 -0.0234,-0.24218 -0.0234,-0.24218 z" id="path6372-3-3-59-2" inkscape:connector-curvature="0"/>
        <path style="fill:#6d6d6d;fill-opacity:1;stroke:none" d="m 217.7226,629.67805 c 0,0 -0.0663,0.15468 -0.0332,0.20993 0.0332,0.0552 0.13258,0.13258 0.16573,0.0884 0.0332,-0.0442 0.11049,-0.18782 0.0552,-0.22097 -0.0552,-0.0331 -0.18782,-0.0773 -0.18782,-0.0773 z" id="path6376-5-5-2-5" inkscape:connector-curvature="0"/>
        <path style="fill:#6d6d6d;fill-opacity:1;stroke:none" d="m 217.81099,630.06475 c 0,0 -0.27622,0.39775 -0.24307,0.45299 0.0331,0.0553 0.11048,0.17678 0.16573,0.16573 0.0552,-0.0111 0.27621,-0.28726 0.24306,-0.40879 -0.0331,-0.12154 -0.16572,-0.20993 -0.16572,-0.20993 z" id="path6378-4-6-43-15" inkscape:connector-curvature="0"/>
        <path style="fill:#6d6d6d;fill-opacity:1;stroke:none" d="m 215.11514,633.30198 c 0,0 0.29831,0.16572 0.3646,0.26516 0.0663,0.0994 0.3867,0.28726 0.23202,0.32041 -0.15468,0.0331 -0.48613,-0.17678 -0.50823,-0.23202 -0.0221,-0.0552 -0.0884,-0.35355 -0.0884,-0.35355 z" id="path6380-9-0-4-4" inkscape:connector-curvature="0"/>
        <path style="fill:#6d6d6d;fill-opacity:1;stroke:none" d="m 217.08178,635.08079 c 0,0 -0.88388,0.97227 -0.53033,1.41422 0.35356,0.44194 1.23744,0.35355 1.85616,0.17677 0.61872,-0.17677 0.79549,-1.06066 0.7071,-1.41421 -0.0884,-0.35355 -0.35355,0.26516 -0.88388,0.0884 -0.53033,-0.17678 -1.14905,-0.26517 -1.14905,-0.26517 z" id="path6382-8-9-17-7" inkscape:connector-curvature="0"/>
        <path style="fill:#6d6d6d;fill-opacity:1;stroke:none" d="m 216.53125,633.14343 c 0,0 -0.28125,0.15625 -0.15625,0.375 0.125,0.21875 0.34375,0.65625 0.40625,0.5 0.0625,-0.15625 0.0937,-0.78125 0.15625,-0.84375 0.0625,-0.0625 -0.40625,-0.0312 -0.40625,-0.0312 z" id="path6384-8-6-84-7" inkscape:connector-curvature="0"/>
        <path style="fill:#6d6d6d;fill-opacity:1;stroke:none" d="m 217,632.14343 c 0,0 -0.0625,0.375 0,0.375 0.0625,0 0.20313,0.125 0.14063,-0.10937 C 217.07813,632.17468 217,632.14343 217,632.14343 z" id="path6386-8-0-8-9" inkscape:connector-curvature="0"/>
        <path style="fill:#6d6d6d;fill-opacity:1;stroke:none" d="m 213.85547,632.92859 c 0,0 -0.043,0.23828 0.0117,0.25 0.0547,0.0117 0.16015,0.0117 0.16015,-0.0664 0,-0.0781 -0.17187,-0.18359 -0.17187,-0.18359 z" id="path6388-8-2-8-1" inkscape:connector-curvature="0"/>
        <path style="fill:#6d6d6d;fill-opacity:1;stroke:none" d="m 211.41016,634.86218 c -0.0898,0.0195 -0.1875,0.082 -0.2461,0.15234 -0.0586,0.0703 -0.14843,0.33594 -0.11718,0.48047 0.0312,0.14453 0.16015,0.32422 0.20703,0.3086 0.0469,-0.0156 0.16797,-0.0625 0.18359,-0.32422 0.0156,-0.26172 0.0469,-0.48047 0.0117,-0.53906 -0.0352,-0.0586 -0.0391,-0.0781 -0.0391,-0.0781 z" id="path6390-79-9-79-6" inkscape:connector-curvature="0"/>
      </g>
    </g>
  </g>
</svg>