<?xml version="1.0" encoding="UTF-8" standalone="no"?>
<!-- Created with Inkscape (http://www.inkscape.org/) -->

<svg
   xmlns:dc="http://purl.org/dc/elements/1.1/"
   xmlns:cc="http://creativecommons.org/ns#"
   xmlns:rdf="http://www.w3.org/1999/02/22-rdf-syntax-ns#"
   xmlns:svg="http://www.w3.org/2000/svg"
   xmlns="http://www.w3.org/2000/svg"
   version="1.1"
   width="32"
   height="32"
   viewBox="0 0 32 32"
   id="svg3945"
   xml:space="preserve"><metadata
   id="metadata18"><rdf:RDF><cc:Work
       rdf:about=""><dc:format>image/svg+xml</dc:format><dc:type
         rdf:resource="http://purl.org/dc/dcmitype/StillImage" /><dc:title></dc:title></cc:Work></rdf:RDF></metadata><defs
   id="defs16" />
<g
   transform="translate(-355.875,-530.20145)"
   id="layer1">
	<g
   id="g3815">
		
			<rect
   width="13.336"
   height="6.4949999"
   x="373.173"
   y="532.79199"
   id="rect4026-0-8-9-6-6-2-1-4-7-7-2-4-7-6"
   style="fill:#ffffff;fill-opacity:0.675;stroke:#c9c9c9;stroke-width:0.2572;stroke-linecap:round" />
		
			<linearGradient
   x1="716.99408"
   y1="-394.2966"
   x2="716.99408"
   y2="-422.53201"
   id="rect3213-2-4-3-9-5-6-8-3-5-6_1_"
   gradientUnits="userSpaceOnUse"
   gradientTransform="matrix(1.0287,0,0,-1.0287,-365.6989,126.7675)">
			<stop
   id="stop7"
   style="stop-color:#f4f4f4;stop-opacity:1"
   offset="0" />
			<stop
   id="stop9"
   style="stop-color:#dddddd;stop-opacity:1"
   offset="1" />
		</linearGradient>
		
			<path
   d="m 356.261,530.587 h 16.295 l 6.267,6.267 h 8.667 v 24.962 h -31.229 v -31.229 z"
   id="rect3213-2-4-3-9-5-6-8-3-5-6"
   style="fill:url(#rect3213-2-4-3-9-5-6-8-3-5-6_1_);stroke:#9d9d9d;stroke-width:0.77149999;stroke-linecap:square" />
		<path
   d="m 381.718,548.951 c 0.006,5.437 -4.396,9.848 -9.832,9.854 -5.436,0.006 -9.847,-4.396 -9.854,-9.831 0,-0.008 0,-0.016 0,-0.022 -0.006,-5.436 4.396,-9.847 9.832,-9.854 5.436,-0.006 9.847,4.396 9.854,9.832 0,0.006 0,0.014 0,0.021 z"
   id="path5753-1-5-3-9-8-2-7-5-8"
   style="fill:#f0f0f0;stroke:#6d6d6d;stroke-width:0.84439999;stroke-linecap:round" />
		<path
   d="m 372.031,541.108 c -0.825,0.023 -2.344,0.219 -2.344,0.219 0,0 0.25,0.477 0.25,0.688 0,0.211 -0.062,0.778 -0.062,1.031 0,0.253 0.925,0.053 1.094,-0.031 0.169,-0.084 1.281,-1.062 1.281,-1.062 0,0 0.408,-0.612 0.281,-0.781 -0.031,-0.044 -0.225,-0.072 -0.5,-0.064 l 0,0 z m -4.469,0.718 c 0.06,0.656 0.844,1.094 0.844,1.094 l 0.125,-0.438 c 0,10e-4 -0.67,-0.656 -0.969,-0.656 z m -0.781,0.438 c 0,0 -0.406,0.347 -1.062,0.406 -0.247,0.022 -0.745,-0.072 -1.281,-0.156 -1.188,1.37 -1.995,3.062 -2.281,4.938 l 0.219,-0.312 c 0,0 0.77,1.381 1.188,1.5 0.418,0.119 0.892,0.543 1.25,0.781 0.358,0.238 0.591,1.472 0.531,2.188 -0.06,0.716 0.483,0.804 0.781,1.281 0.298,0.477 0.949,3.326 1.188,3.625 0.239,0.299 0.475,-1.253 0.594,-1.969 0.119,-0.716 1.688,-2.034 1.688,-2.75 0,-0.716 -1.798,-1.736 -2.156,-2.094 -0.358,-0.358 -1.477,-0.531 -2.312,-0.531 -0.835,0 -0.847,-1.128 -1.562,-1.188 -0.715,-0.06 0.125,-1 0.125,-1 0,0 1.958,-0.312 2.375,-0.312 0.417,0 0.54,-1.182 0.719,-1.719 0.179,-0.537 1.506,-0.486 1.625,-0.844 0.119,-0.358 -0.542,-0.719 -0.781,-0.719 -0.239,0 -1.259,0.364 -1.438,0.125 -0.179,-0.239 1.031,-0.969 1.031,-0.969 l -0.441,-0.281 z m 9.063,0 c -0.197,0.016 -0.374,0.052 -0.438,0.094 -0.127,0.084 -0.467,0.216 -0.594,0.406 -0.127,0.19 -0.272,0.624 -0.125,0.75 0.147,0.126 0.26,0.157 0.344,0.094 0.084,-0.063 0.729,-0.616 0.812,-0.531 0.083,0.085 0.283,0.594 0.156,0.594 -0.127,0 -1.031,0.281 -1.031,0.281 0,0 -0.003,-0.171 -0.062,-0.156 -0.06,0.015 -0.003,0.235 -0.062,0.25 -0.06,0.015 -0.844,0.375 -0.844,0.375 0,0 -0.1,0.088 -0.219,0.188 l -0.25,0.25 c -0.006,0.007 -0.027,0.025 -0.031,0.031 -0.06,0.104 -0.39,0.599 -0.375,0.719 0.016,0.119 -0.07,0.375 0.094,0.375 0.164,0 1.27,-0.682 1.344,-0.562 0.074,0.119 0.188,0.125 0.188,0.125 0,0 -0.074,-0.156 0,-0.156 0.074,0 0.562,0.188 0.562,0.188 0,0 -0.073,-0.312 0.031,-0.281 0.104,0.03 0.583,0.594 0.688,0.594 0.105,0 0.358,-0.007 0.344,-0.156 -0.015,-0.149 -0.068,-0.335 0.125,-0.469 0.193,-0.134 0.787,-0.231 0.906,-0.156 0.119,0.074 0.304,0.16 0.125,0.25 -0.18,0.089 -0.396,-0.014 -0.5,0.031 -0.104,0.044 -0.392,0.333 -0.406,0.438 -0.015,0.104 0.561,0.565 0.531,0.625 -0.029,0.06 -0.326,0.344 -0.625,0.344 -0.299,0 -2.484,-0.546 -2.812,-0.531 -0.328,0.015 -0.615,0.099 -0.75,0.219 -0.135,0.119 -0.707,0.648 -0.781,0.812 -0.074,0.164 -0.398,0.957 -0.219,1.375 0.179,0.418 0.584,1.176 1.031,1.25 0.447,0.074 0.99,0.107 1.125,0.062 0.135,-0.045 0.859,0.76 0.875,1.312 0.015,0.552 -0.039,1.938 0.125,2.281 0.164,0.343 0.291,0.982 0.812,0.938 0.521,-0.044 0.945,-0.168 1.125,-0.406 0.179,-0.238 0.678,-1.455 0.812,-2.156 0.134,-0.701 0.754,-1.754 0.844,-2.156 0.09,-0.402 0.102,-0.631 -0.062,-0.75 -0.164,-0.119 -0.485,-0.116 -0.5,-0.25 -0.016,-0.135 0.209,-0.016 0.344,0 0.135,0.015 0.631,-0.022 0.75,-0.156 0.119,-0.135 0.324,-0.571 0.25,-0.75 -0.074,-0.18 -0.406,-0.562 -0.406,-0.562 0,0 1.338,0.161 1.875,0.594 0.312,0.251 0.564,0.577 0.75,0.844 -0.047,-2.462 -0.994,-4.705 -2.531,-6.406 -0.014,0.002 -0.054,0.031 -0.062,0.031 -0.232,0 -2.031,0.344 -2.031,0.344 0,0 -0.393,-0.447 -0.688,-0.469 -0.149,-0.016 -0.367,-0.021 -0.564,-0.005 l 0,0 z m -2.282,1.312 c 0,0 -0.212,0.865 0.094,0.844 0.306,-0.021 -0.094,-0.844 -0.094,-0.844 z m -0.406,0.375 c 0,0 -0.365,0.187 -0.281,0.281 0.084,0.094 0.26,0.147 0.312,0.062 0.052,-0.085 -0.031,-0.343 -0.031,-0.343 l 0,0 z m 5.719,8.094 c -0.121,0.026 -0.265,0.124 -0.344,0.219 -0.079,0.095 -0.198,0.43 -0.156,0.625 0.042,0.195 0.218,0.459 0.281,0.438 0.063,-0.021 0.229,-0.084 0.25,-0.438 0.021,-0.354 0.078,-0.671 0.031,-0.75 -0.047,-0.079 -0.062,-0.094 -0.062,-0.094 l 0,0 z"
   id="path6360-91-0-9-0"
   style="fill:#6d6d6d" />
	</g>
</g>
</svg>