<?xml version="1.0" encoding="UTF-8" standalone="no"?>
<!-- Created with Inkscape (http://www.inkscape.org/) -->

<svg
   xmlns:dc="http://purl.org/dc/elements/1.1/"
   xmlns:cc="http://creativecommons.org/ns#"
   xmlns:rdf="http://www.w3.org/1999/02/22-rdf-syntax-ns#"
   xmlns:svg="http://www.w3.org/2000/svg"
   xmlns="http://www.w3.org/2000/svg"
   xmlns:xlink="http://www.w3.org/1999/xlink"
   version="1.1"
   width="31.999998"
   height="31.999985"
   id="svg3945">
  <defs
     id="defs3947">
    <linearGradient
       x1="69.296463"
       y1="578.60065"
       x2="69.296463"
       y2="606.83655"
       id="linearGradient6791-8-0"
       xlink:href="#linearGradient6582-5-20-76"
       gradientUnits="userSpaceOnUse"
       gradientTransform="translate(18.031223,-66.46804)" />
    <linearGradient
       id="linearGradient6582-5-20-76">
      <stop
         id="stop6584-0-8-1"
         style="stop-color:#f4f4f4;stop-opacity:1"
         offset="0" />
      <stop
         id="stop6586-2-7-5"
         style="stop-color:#dddddd;stop-opacity:1"
         offset="1" />
    </linearGradient>
    <linearGradient
       x1="69.296463"
       y1="578.60065"
       x2="69.296463"
       y2="606.83655"
       id="linearGradient3024"
       xlink:href="#linearGradient6582-5-20-76"
       gradientUnits="userSpaceOnUse"
       gradientTransform="matrix(1.0287029,0,0,1.0287029,299.13472,-62.827364)" />
  </defs>
  <metadata
     id="metadata3950">
    <rdf:RDF>
      <cc:Work
         rdf:about="">
        <dc:format>image/svg+xml</dc:format>
        <dc:type
           rdf:resource="http://purl.org/dc/dcmitype/StillImage" />
        <dc:title></dc:title>
      </cc:Work>
    </rdf:RDF>
  </metadata>
  <g
     transform="translate(-355.875,-530.20145)"
     id="layer1">
    <g
       id="g3815">
      <rect
         width="13.33573"
         height="6.4946423"
         x="373.17294"
         y="532.79187"
         id="rect4026-0-8-9-6-6-2-1-4-7-7-2-4-7-6"
         style="color:#000000;fill:#ffffff;fill-opacity:0.675;stroke:#c9c9c9;stroke-width:0.25717571;stroke-linecap:round;stroke-linejoin:miter;stroke-miterlimit:4;stroke-opacity:1;stroke-dasharray:none;stroke-dashoffset:0;marker:none;visibility:visible;display:inline;overflow:visible;enable-background:accumulate" />
      <path
         d="m 356.26077,530.58722 16.29474,0 6.26661,6.26661 8.66712,0 0,24.96185 -31.22847,0 z"
         id="rect3213-2-4-3-9-5-6-8-3-5-6"
         style="color:#000000;fill:url(#linearGradient3024);fill-opacity:1;fill-rule:nonzero;stroke:#9d9d9d;stroke-width:0.77152717;stroke-linecap:square;stroke-linejoin:miter;stroke-miterlimit:4;stroke-opacity:1;stroke-dashoffset:0;marker:none;visibility:visible;display:inline;overflow:visible;enable-background:accumulate" />
      <path
         d="m 296.6534,923.09424 a 10.77233,10.77233 0 1 1 -21.54466,0 10.77233,10.77233 0 1 1 21.54466,0 z"
         transform="matrix(0.9136896,0,0,0.9136896,110.66844,-294.47099)"
         id="path5753-1-5-3-9-8-2-7-5-8"
         style="color:#000000;fill:#f0f0f0;fill-opacity:1;stroke:#6d6d6d;stroke-width:0.84440845;stroke-linecap:round;stroke-linejoin:miter;stroke-miterlimit:4;stroke-opacity:1;stroke-dasharray:none;stroke-dashoffset:0;marker:none;visibility:visible;display:inline;overflow:visible;enable-background:accumulate" />
      <path
         d="m 372.03125,541.1077 c -0.82461,0.0237 -2.34375,0.21875 -2.34375,0.21875 0,0 0.25,0.47657 0.25,0.6875 0,0.21093 -0.0625,0.77814 -0.0625,1.03125 0,0.25321 0.92501,0.0531 1.09375,-0.0312 0.16875,-0.0844 1.28125,-1.0625 1.28125,-1.0625 0,0 0.40774,-0.6125 0.28125,-0.78125 -0.0316,-0.0422 -0.22513,-0.0704 -0.5,-0.0625 z m -4.46875,0.71875 c 0.0596,0.65626 0.84375,1.09375 0.84375,1.09375 l 0.125,-0.4375 c 0,0 -0.67045,-0.65625 -0.96875,-0.65625 z m -0.78125,0.4375 c 0,0 -0.40625,0.34655 -1.0625,0.40625 -0.24645,0.0224 -0.74488,-0.0719 -1.28125,-0.15625 -1.18804,1.36987 -1.99468,3.06198 -2.28125,4.9375 l 0.21875,-0.3125 c 0,0 0.76988,1.38066 1.1875,1.5 0.41761,0.11932 0.89204,0.5426 1.25,0.78125 0.35797,0.23863 0.59095,1.47158 0.53125,2.1875 -0.0596,0.71593 0.48295,0.80397 0.78125,1.28125 0.29832,0.47728 0.94885,3.3267 1.1875,3.625 0.23864,0.29832 0.47441,-1.25282 0.59375,-1.96875 0.11932,-0.71592 1.6875,-2.03408 1.6875,-2.75 0,-0.71592 -1.7983,-1.7358 -2.15625,-2.09375 -0.35797,-0.35797 -1.47726,-0.53125 -2.3125,-0.53125 -0.83523,0 -0.84657,-1.1278 -1.5625,-1.1875 -0.71589,-0.0597 0.125,-1 0.125,-1 0,0 1.95738,-0.3125 2.375,-0.3125 0.41763,0 0.53977,-1.18181 0.71875,-1.71875 0.17897,-0.53693 1.50567,-0.4858 1.625,-0.84375 0.11932,-0.35797 -0.5426,-0.71875 -0.78125,-0.71875 -0.23864,0 -1.25853,0.36364 -1.4375,0.125 -0.17898,-0.23863 1.03125,-0.96875 1.03125,-0.96875 l -0.4375,-0.28125 z m 9.0625,0 c -0.19727,0.0155 -0.37422,0.0516 -0.4375,0.0937 -0.12649,0.0844 -0.46719,0.21642 -0.59375,0.40625 -0.12649,0.18984 -0.27272,0.62344 -0.125,0.75 0.14765,0.12649 0.25938,0.15707 0.34375,0.0937 0.0844,-0.0633 0.72813,-0.61562 0.8125,-0.53125 0.0844,0.0844 0.28281,0.59375 0.15625,0.59375 -0.12649,0 -1.03125,0.28125 -1.03125,0.28125 0,0 -0.003,-0.17117 -0.0625,-0.15625 -0.0597,0.0149 -0.003,0.23508 -0.0625,0.25 -0.0597,0.015 -0.84375,0.375 -0.84375,0.375 0,0 -0.0994,0.0887 -0.21875,0.1875 l -0.25,0.25 c -0.006,0.007 -0.0279,0.0254 -0.0312,0.0312 -0.0597,0.10435 -0.38991,0.59943 -0.375,0.71875 0.0149,0.11934 -0.0703,0.375 0.0937,0.375 0.16407,0 1.26918,-0.68183 1.34375,-0.5625 0.0745,0.11933 0.1875,0.125 0.1875,0.125 0,0 -0.0745,-0.15625 0,-0.15625 0.0747,0 0.5625,0.1875 0.5625,0.1875 0,0 -0.0732,-0.31108 0.0312,-0.28125 0.10435,0.0298 0.58309,0.59375 0.6875,0.59375 0.10435,0 0.35867,-0.007 0.34375,-0.15625 -0.0148,-0.14916 -0.0689,-0.33451 0.125,-0.46875 0.19389,-0.13419 0.78694,-0.23087 0.90625,-0.15625 0.11934,0.0745 0.30403,0.16051 0.125,0.25 -0.17898,0.0895 -0.3956,-0.0135 -0.5,0.0312 -0.10435,0.0447 -0.39133,0.33309 -0.40625,0.4375 -0.0148,0.10435 0.56107,0.56533 0.53125,0.625 -0.0298,0.0597 -0.3267,0.34375 -0.625,0.34375 -0.2983,0 -2.48436,-0.54615 -2.8125,-0.53125 -0.32812,0.015 -0.61577,0.0994 -0.75,0.21875 -0.13418,0.11933 -0.70668,0.64844 -0.78125,0.8125 -0.0745,0.16408 -0.39774,0.95738 -0.21875,1.375 0.17897,0.41763 0.58379,1.17543 1.03125,1.25 0.44744,0.0745 0.99077,0.10718 1.125,0.0625 0.13418,-0.0447 0.86008,0.76064 0.875,1.3125 0.0148,0.55185 -0.039,1.9382 0.125,2.28125 0.16406,0.34305 0.29047,0.98225 0.8125,0.9375 0.52203,-0.0447 0.94602,-0.16761 1.125,-0.40625 0.17897,-0.23865 0.67826,-1.45525 0.8125,-2.15625 0.13418,-0.70101 0.75426,-1.75355 0.84375,-2.15625 0.0895,-0.40271 0.1015,-0.63068 -0.0625,-0.75 -0.16407,-0.11934 -0.48508,-0.11579 -0.5,-0.25 -0.015,-0.13419 0.20951,-0.015 0.34375,0 0.13419,0.0149 0.63067,-0.0221 0.75,-0.15625 0.11933,-0.13419 0.32457,-0.57102 0.25,-0.75 -0.0745,-0.17899 -0.40625,-0.5625 -0.40625,-0.5625 0,0 1.33805,0.16122 1.875,0.59375 0.312,0.25134 0.56424,0.57722 0.75,0.84375 -0.0466,-2.46196 -0.99479,-4.70474 -2.53125,-6.40625 -0.0133,0.002 -0.0537,0.0312 -0.0625,0.0312 -0.23202,0 -2.03125,0.34375 -2.03125,0.34375 0,0 -0.3922,-0.44765 -0.6875,-0.46875 -0.14765,-0.0105 -0.36523,-0.0155 -0.5625,0 z m -2.28125,1.3125 c 0,0 -0.21212,0.86485 0.0937,0.84375 0.30585,-0.0211 -0.0937,-0.84375 -0.0937,-0.84375 z m -0.40625,0.375 c 0,0 -0.36562,0.18634 -0.28125,0.28125 0.0844,0.0949 0.25976,0.14685 0.3125,0.0625 0.0528,-0.0844 -0.0312,-0.34375 -0.0312,-0.34375 z m 5.71875,8.09375 c -0.12123,0.0263 -0.26464,0.1238 -0.34375,0.21875 -0.0791,0.0949 -0.19844,0.42989 -0.15625,0.625 0.0421,0.19511 0.21796,0.45859 0.28125,0.4375 0.0633,-0.0211 0.22891,-0.0842 0.25,-0.4375 0.0211,-0.35331 0.0788,-0.6709 0.0312,-0.75 -0.0475,-0.0791 -0.0625,-0.0937 -0.0625,-0.0937 z"
         id="path6360-91-0-9-0"
         style="fill:#6d6d6d;fill-opacity:1;stroke:none" />
    </g>
  </g>
</svg>
