<?xml version="1.0" encoding="UTF-8" standalone="no"?>
<!-- Created with Inkscape (http://www.inkscape.org/) -->

<svg
   xmlns:dc="http://purl.org/dc/elements/1.1/"
   xmlns:cc="http://creativecommons.org/ns#"
   xmlns:rdf="http://www.w3.org/1999/02/22-rdf-syntax-ns#"
   xmlns:svg="http://www.w3.org/2000/svg"
   xmlns="http://www.w3.org/2000/svg"
   version="1.1"
   width="32"
   height="32.000031"
   id="svg2">
  <defs
     id="defs4" />
  <metadata
     id="metadata7">
    <rdf:RDF>
      <cc:Work
         rdf:about="">
        <dc:format>image/svg+xml</dc:format>
        <dc:type
           rdf:resource="http://purl.org/dc/dcmitype/StillImage" />
        <dc:title></dc:title>
      </cc:Work>
    </rdf:RDF>
  </metadata>
  <path
     d="m 3.37703,3.37704 c 4.50273,-4.50274 11.80568,-4.50272 16.3085,6e-5 4.07216,4.07223 4.41687,10.42533 1.12323,14.93559 L 32,29.50385 29.50385,32.00003 18.3126,20.80887 C 13.80244,24.1025 7.44932,23.75797 3.37711,19.68548 -1.1257,15.18284 -1.12568,7.8799 3.37703,3.37704 z m 2.12176,2.12187 c -3.34229,3.34214 -3.38386,8.76418 -0.0416,12.10657 3.34232,3.34223 8.80592,3.34224 12.1482,-2e-5 C 20.94762,14.26307 20.90595,8.84117 17.56369,5.49878 14.22149,2.15665 8.84106,2.15665 5.49878,5.49891 z"
     id="path3017-6-34-0"
     style="fill:#555555;fill-opacity:1;stroke:none" />
</svg>
