<?xml version="1.0" encoding="UTF-8" standalone="no"?>
<svg
   xmlns:dc="http://purl.org/dc/elements/1.1/"
   xmlns:cc="http://creativecommons.org/ns#"
   xmlns:rdf="http://www.w3.org/1999/02/22-rdf-syntax-ns#"
   xmlns:svg="http://www.w3.org/2000/svg"
   xmlns="http://www.w3.org/2000/svg"
   xmlns:sodipodi="http://sodipodi.sourceforge.net/DTD/sodipodi-0.dtd"
   xmlns:inkscape="http://www.inkscape.org/namespaces/inkscape"
   viewBox="0 0 1024 768"
   enable-background="new 0 0 1024 768"
   id="svg2"
   version="1.1"
   inkscape:version="0.48.4 r9939"
   width="100%"
   height="100%"
   sodipodi:docname="switch.svg">
  <metadata
     id="metadata10">
    <rdf:RDF>
      <cc:Work
         rdf:about="">
        <dc:format>image/svg+xml</dc:format>
        <dc:type
           rdf:resource="http://purl.org/dc/dcmitype/StillImage" />
      </cc:Work>
    </rdf:RDF>
  </metadata>
  <defs
     id="defs8" />
  <sodipodi:namedview
     pagecolor="#ffffff"
     bordercolor="#666666"
     borderopacity="1"
     objecttolerance="10"
     gridtolerance="10"
     guidetolerance="10"
     inkscape:pageopacity="0"
     inkscape:pageshadow="2"
     inkscape:window-width="1301"
     inkscape:window-height="744"
     id="namedview6"
     showgrid="false"
     inkscape:zoom="1.6130873"
     inkscape:cx="641.82298"
     inkscape:cy="559.14351"
     inkscape:window-x="65"
     inkscape:window-y="24"
     inkscape:window-maximized="1"
     inkscape:current-layer="svg2" />
  <path
     d="M751.863 131.861l-186.744-1.107h-215.793v-102.917l-221.326 205.833 221.326 188.127v-102.917h215.793v215.793h-102.917l188.127 221.326 204.727-221.326h-102.917v-215.793l-.277-187.021zm-90.467 90.744v4.427h-4.427v-4.427h4.427z"
     fill="#555"
     id="path4" />
  <path
     style="fill:#555555;fill-opacity:1"
     id="path2987"
     d="m 655.50315,228.4467 c 0.0617,-1.78814 0.0503,-3.57803 0.0459,-5.36699 -0.0232,-1.52285 -0.0901,-3.04028 0.26106,-4.53137 1.38945,-4.26176 2.03123,-2.45041 9.01205,-5.74451 0.17526,1.70443 0.0952,3.43128 0.0934,5.1441 0.004,1.70852 -0.003,3.41698 0.003,5.12551 0.007,1.18842 0.009,2.37701 0.0258,3.56533 0.0136,0.58599 0.0157,1.17212 0.0213,1.75819 -0.0277,4.03351 0.47702,0.91022 -8.23944,5.07409 0.0582,-1.58969 0.0567,-3.18097 0.0779,-4.77148 0.0851,-3.24689 0.003,-6.496 0.11742,-9.74172 0.10541,-2.014 0.24881,-4.02569 0.37022,-6.03873 0.14518,-3.94097 2.3079,-3.0689 8.24521,-5.88786 0.21323,-0.10123 0.4983,0.7865 0.73313,1.41954 0.73242,2.90819 1.11485,5.88864 1.54463,8.85257 0.4574,3.36663 0.88558,6.73214 1.14883,10.12028 0.15294,2.52612 0.18472,5.05219 0.58861,7.55449 0.26091,1.83415 0.74244,3.62083 1.1899,5.415 0.18796,0.82246 0.3553,1.64853 0.40713,2.49153 0.28923,3.13056 0.21105,1.58948 -8.17839,3.72672 -0.47734,0.12161 0.0924,-0.98085 0.13341,-1.47172 0.0648,-0.77524 0.13257,-1.55031 0.18384,-2.32655 0.17539,-2.65567 0.19117,-3.61841 0.29351,-6.33928 0.11519,-4.45847 0.13011,-8.92011 0.0439,-13.37926 0.0594,-1.33739 7.5e-4,-2.53565 -0.66477,-3.70604 -0.49031,-0.78061 -1.08484,-1.40513 -2.00311,-1.59515 -1.14206,-0.12532 -2.29531,-0.10022 -3.44263,-0.10571 -0.72563,-0.003 -1.07887,-0.0664 -1.78687,0.19779 -0.34224,0.12769 -1.29237,0.68147 -0.97237,0.50532 2.17939,-1.19968 4.27387,-2.57371 6.55078,-3.57605 0.53664,-0.23624 -0.85886,0.80121 -1.2466,1.24106 -0.41186,0.46722 -0.76493,0.98314 -1.1474,1.47471 -1.97318,2.59264 -3.09708,5.55445 -3.67217,8.72872 -0.32926,2.19961 -0.30177,4.4272 -0.31322,6.64462 -0.0138,2.33706 0.006,4.67381 0.0388,7.01061 -0.026,1.14299 0.12768,2.26178 0.59649,3.30377 0.15529,0.2942 0.30251,0.58545 0.42862,0.89308 0,0 -8.07156,4.49335 -8.07156,4.49335 l 0,0 c -0.10448,-0.29792 -0.24267,-0.57749 -0.37806,-0.86285 -0.52443,-1.16644 -0.75142,-2.41401 -0.66943,-3.69948 0.0149,-2.33802 0.009,-4.67576 -0.0355,-7.01349 -0.0233,-2.27543 0.0158,-4.5554 0.30696,-6.81575 0.53569,-3.30191 1.60874,-6.41308 3.58989,-9.15222 0.23407,-0.33172 1.81917,-2.65627 2.21848,-2.92374 3.89898,-2.61159 7.2973,-5.8581 11.95704,-5.8194 1.22737,-0.001 2.49172,-0.0621 3.67611,0.31242 1.01262,0.46156 1.73922,1.23145 2.33218,2.1684 0.76724,1.33155 0.95404,2.66598 0.76936,4.19862 -0.17164,4.52885 -0.3163,9.05899 -0.4244,13.58978 -0.0487,2.83564 -0.0873,5.6708 -0.11355,8.50672 -0.004,0.4537 0.34708,1.08716 -0.0146,1.36109 -8.29491,6.28194 -8.28309,8.00729 -8.19507,4.65792 -0.0182,-0.80063 -0.0983,-1.59648 -0.25907,-2.3823 -0.37577,-1.83566 -0.87874,-3.64266 -1.13778,-5.50163 -0.44187,-2.5409 -0.44276,-5.10633 -0.5394,-7.67752 -0.2163,-3.37528 -0.63838,-6.72279 -1.09688,-10.07273 -0.42127,-2.87559 -0.79165,-5.7759 -1.63,-8.56678 -1.09013,-2.50262 -1.20831,0.1604 7.56223,-5.02006 0.37782,-0.22316 -0.20514,0.0622 -0.30044,0.44718 -0.038,0.15373 -0.0263,0.31564 -0.0394,0.47346 -0.17178,2.04086 -0.45832,4.0713 -0.58183,6.11673 -0.17357,3.21453 -0.0624,6.43529 -0.0309,9.65297 0.0211,1.56407 0.0191,3.12896 0.0779,4.69217 -9.54378,5.16653 -8.16893,7.37958 -8.23953,3.32244 0.005,-0.59333 0.007,-1.18673 0.0211,-1.77998 0.0171,-1.19855 0.0197,-2.39733 0.0307,-3.59595 0.0119,-1.71533 0.0166,-3.43068 0.0354,-5.14595 0.007,-1.6038 0.0191,-3.20974 -0.0878,-4.81091 8.64262,-4.67049 9.40587,-6.92647 7.3861,-2.62971 -0.56748,1.37564 -0.44268,2.85197 -0.44872,4.3127 -0.004,1.77335 -0.0164,3.54769 0.0459,5.3202 0,0 -8.20311,4.17969 -8.20311,4.17969 z"
     inkscape:connector-curvature="0" />
</svg>
