<svg xmlns="http://www.w3.org/2000/svg" viewBox="0 0 1024 768" enable-background="new 0 0 1024 768"><path d="M751.863 131.86l-186.744-1.106H349.325V27.837L128 233.67l221.326 188.127V318.88H565.12v215.793H462.2L650.33 756l204.726-221.327H752.14V318.88l-.278-187.02zm-90.467 90.745v4.427h-4.427v-4.427h4.426z" fill="#555"/><path d="M655.503 228.447c.062-1.788.05-3.578.046-5.367-.024-1.523-.09-3.04.26-4.532 1.39-4.26 2.03-2.45 9.012-5.744.175 1.704.095 3.43.094 5.144.004 1.708-.003 3.417.003 5.125.006 1.19.008 2.377.024 3.566.014.585.016 1.17.022 1.757-.028 4.033.477.91-8.24 5.074.058-1.59.057-3.18.078-4.77.085-3.247.003-6.496.118-9.742.105-2.014.248-4.026.37-6.04.145-3.94 2.308-3.068 8.245-5.887.213-.1.498.788.733 1.42.733 2.91 1.115 5.89 1.545 8.853.457 3.367.885 6.733 1.15 10.12.152 2.527.183 5.053.587 7.555.26 1.834.743 3.62 1.19 5.415.188.823.355 1.65.407 2.492.288 3.13.21 1.59-8.18 3.726-.477.123.093-.98.134-1.47.065-.776.133-1.55.184-2.327.175-2.656.19-3.618.294-6.34.115-4.458.13-8.92.043-13.378.06-1.338 0-2.536-.664-3.706-.49-.782-1.084-1.407-2.002-1.597-1.142-.125-2.296-.1-3.443-.105-.726-.003-1.08-.067-1.787.197-.342.128-1.292.682-.972.506 2.18-1.2 4.274-2.573 6.55-3.575.537-.236-.858.8-1.246 1.24-.412.468-.765.984-1.147 1.476-1.974 2.593-3.098 5.555-3.673 8.73-.33 2.2-.3 4.426-.313 6.644-.014 2.337.006 4.674.04 7.01-.027 1.143.127 2.262.595 3.304.156.294.303.586.43.893l-8.073 4.495c-.105-.298-.243-.578-.38-.863-.523-1.167-.75-2.414-.668-3.7.015-2.338.01-4.675-.036-7.013-.023-2.277.016-4.557.307-6.817.536-3.302 1.61-6.413 3.59-9.152.234-.33 1.82-2.655 2.22-2.923 3.898-2.61 7.296-5.858 11.956-5.82 1.226 0 2.49-.06 3.675.313 1.013.462 1.74 1.232 2.332 2.17.767 1.33.954 2.665.77 4.197-.172 4.53-.317 9.06-.425 13.59-.05 2.836-.087 5.67-.113 8.507-.005.453.346 1.087-.016 1.36-8.295 6.283-8.283 8.008-8.195 4.66-.02-.802-.1-1.598-.26-2.384-.376-1.835-.88-3.642-1.138-5.5-.442-2.542-.443-5.108-.54-7.68-.216-3.374-.638-6.722-1.096-10.07-.422-2.877-.792-5.777-1.63-8.568-1.09-2.503-1.21.16 7.562-5.02.378-.223-.205.062-.3.447-.038.153-.027.314-.04.472-.172 2.04-.458 4.072-.582 6.117-.173 3.214-.062 6.434-.03 9.652.02 1.564.02 3.13.077 4.692-9.543 5.167-8.17 7.38-8.24 3.323.006-.594.008-1.187.022-1.78.017-1.2.02-2.398.03-3.596.012-1.715.017-3.43.036-5.145.008-1.604.02-3.21-.087-4.81 8.643-4.672 9.406-6.928 7.386-2.63-.568 1.375-.443 2.85-.45 4.312-.003 1.773-.016 3.548.046 5.32l-8.203 4.18z" fill="#555"/></svg>