<?xml version="1.0" encoding="utf-8"?>
<!-- Generator: Adobe Illustrator 17.1.0, SVG Export Plug-In . SVG Version: 6.00 Build 0)  -->
<!DOCTYPE svg PUBLIC "-//W3C//DTD SVG 1.1//EN" "http://www.w3.org/Graphics/SVG/1.1/DTD/svg11.dtd">
<svg version="1.1" id="Layer_1" xmlns="http://www.w3.org/2000/svg" xmlns:xlink="http://www.w3.org/1999/xlink" x="0px" y="0px"
	 viewBox="0 0 96 96" enable-background="new 0 0 96 96" xml:space="preserve">
<g>
	<path fill="#555555" d="M13.5,28.2l8.1,63c0.3,2.7,2.4,4.8,5.1,4.8H48h21.3c2.7,0,4.8-2.1,4.8-4.5l8.1-63H13.5V28.2z"/>
	<path fill="#555555" d="M77.4,6.6C81,6.6,84,8.1,84,9.9v7.2c0,1.8-3,1.5-6.9,1.5H18.6c-3.6,0-6.6,0.3-6.6-1.5V9.9
		c0-1.8,3-3.3,6.9-3.3l13.5-1.2L37.2,0h21.3l5.1,5.7L77.4,6.6z"/>
</g>
</svg>
