<?xml version="1.0" encoding="UTF-8"?>
<!-- Generator: Adobe Illustrator 15.1.0, SVG Export Plug-In . SVG Version: 6.00 Build 0)  -->
<!DOCTYPE svg PUBLIC "-//W3C//DTD SVG 1.1//EN" "http://www.w3.org/Graphics/SVG/1.1/DTD/svg11.dtd">
<svg version="1.1" id="Layer_1" xmlns="http://www.w3.org/2000/svg" xmlns:xlink="http://www.w3.org/1999/xlink" x="0px" y="0px" width="15px" height="15px" viewBox="0 0 15 15" enable-background="new 0 0 15 15" xml:space="preserve">
<g>
	<path fill="#D1D3D4" d="M12.281,4.776c0,2.639-2.142,4.783-4.78,4.783c-2.64,0-4.779-2.144-4.779-4.783   C2.722,2.138,4.861,0,7.501,0C10.14,0,12.281,2.138,12.281,4.776z"/>
	<path fill="#D1D3D4" d="M13.36,8.609h-0.947c-1.031,1.625-2.844,2.707-4.912,2.707c-2.068,0-3.883-1.082-4.914-2.707H1.645   c-0.445,0-0.799,0.358-0.799,0.801v4.795C0.846,14.641,1.199,15,1.645,15H13.36c0.44,0,0.794-0.359,0.794-0.795V9.41   C14.154,8.968,13.801,8.609,13.36,8.609z"/>
</g>
</svg>