<?xml version="1.0" encoding="UTF-8"?>
<svg xmlns="http://www.w3.org/2000/svg" width="15" height="15" viewBox="0 0 15 15">
	<g fill="#c8ccd1">
		<path d="M12.28 4.776c0 2.64-2.14 4.783-4.78 4.783S2.723 7.414 2.723 4.775C2.722 2.138 4.862 0 7.502 0c2.638 0 4.78 2.138 4.78 4.776z"/>
		<path d="M13.36 8.61h-.947c-1.03 1.624-2.844 2.706-4.912 2.706-2.067 0-3.882-1.082-4.913-2.707h-.942c-.445 0-.8.357-.8.8v4.795c0 .436.354.795.8.795H13.36c.44 0 .794-.36.794-.795V9.41c0-.442-.353-.8-.794-.8z"/>
	</g>
</svg>
